#N canvas -8 -8 1366 725 10;
#X obj 1156 346 route list;
#X obj -29 84 select 1;
#X msg -29 114 bang;
#X obj -29 136 tabplay~ bumbo;
#X obj 68 176 loadbang;
#X obj -37 240 soundfiler;
#X obj 65 243 table bumbo;
#X obj 444 93 select 1;
#X msg 443 125 bang;
#X obj 517 195 loadbang;
#X obj 444 255 soundfiler;
#X obj 1157 299 receive fromGUI;
#X obj 9 325 send toSystem;
#X msg -36 210 read -resize bumbo.wav bumbo;
#X obj 210 77 select 1;
#X msg 210 107 bang;
#X obj 275 174 loadbang;
#X obj 202 233 soundfiler;
#X obj 217 314 send toSystem;
#X msg 199 203 read -resize caixa.wav caixa;
#X obj 286 233 table caixa;
#X obj 526 256 table chimbal;
#X msg 435 226 read -resize chimbal.wav chimbal;
#X obj 210 129 tabplay~ caixa;
#X obj 456 153 tabplay~ chimbal;
#X obj 732 264 select 1;
#X msg 740 296 bang;
#X obj 792 360 loadbang;
#X obj 740 419 soundfiler;
#X obj 716 584 bng 15 250 50 0 empty empty empty 17 7 0 10 -262144
-1 -1;
#X obj 674 641 send toSystem;
#X obj 774 582 bng 15 250 50 0 empty empty empty 17 7 0 10 -262144
-1 -1;
#X obj 800 639 send toSystem;
#X obj 852 579 bng 15 250 50 0 empty empty empty 17 7 0 10 -262144
-1 -1;
#X obj 928 642 send toSystem;
#X obj 724 456 t b b b b b b b b b b;
#X obj 1007 724 select 1;
#X msg 1017 757 bang;
#X obj 1069 821 loadbang;
#X obj 1017 880 soundfiler;
#X obj 993 1045 bng 15 250 50 0 empty empty empty 17 7 0 10 -262144
-1 -1;
#X obj 951 1102 send toSystem;
#X obj 1051 1043 bng 15 250 50 0 empty empty empty 17 7 0 10 -262144
-1 -1;
#X obj 1077 1100 send toSystem;
#X obj 1129 1040 bng 15 250 50 0 empty empty empty 17 7 0 10 -262144
-1 -1;
#X obj 1205 1103 send toSystem;
#X obj 1001 917 t b b b b b b b b b b;
#X obj 602 717 select 1;
#X msg 602 747 bang;
#X obj 665 818 loadbang;
#X obj 613 877 soundfiler;
#X obj 589 1042 bng 15 250 50 0 empty empty empty 17 7 0 10 -262144
-1 -1;
#X obj 547 1099 send toSystem;
#X obj 647 1040 bng 15 250 50 0 empty empty empty 17 7 0 10 -262144
-1 -1;
#X obj 673 1097 send toSystem;
#X obj 725 1037 bng 15 250 50 0 empty empty empty 17 7 0 10 -262144
-1 -1;
#X obj 801 1100 send toSystem;
#X obj 597 914 t b b b b b b b b b b;
#X obj 608 779 tabplay~ surdo;
#X obj 695 879 table surdo;
#X obj 39 621 select 1;
#X msg 36 646 bang;
#X obj 104 718 loadbang;
#X obj 31 777 soundfiler;
#X obj 22 856 bng 15 250 50 0 empty empty empty 17 7 0 10 -262144 -1
-1;
#X obj -4 806 t b b b b b b b b b;
#X obj -21 937 send toSystem;
#X obj 308 612 select 1;
#X msg 307 639 bang;
#X obj 373 709 loadbang;
#X obj 300 768 soundfiler;
#X obj 221 828 bng 15 250 50 0 empty empty empty 17 7 0 10 -262144
-1 -1;
#X obj 265 797 t b b b b b b b b b;
#X obj 248 928 send toSystem;
#X obj 110 876 delay 65;
#X obj 109 906 delay 95;
#X obj 112 937 delay 130;
#X obj 114 965 delay 170;
#X msg 238 894 list /vibrate 20;
#X obj 377 835 delay 40;
#X obj 379 867 delay 70;
#X obj 378 897 delay 110;
#X obj 381 928 delay 160;
#X obj 383 956 delay 220;
#X msg -31 903 list /vibrate 15;
#X obj 108 844 delay 30;
#X obj 367 325 send toSystem;
#X msg 583 851 read -resize surdo.wav surdo;
#X obj 117 778 table pratoesq;
#X msg 22 749 read -resize pratoesq.wav pratoesq;
#X obj 39 673 tabplay~ pratoesq;
#X obj 308 664 tabplay~ pratodir;
#X msg 291 740 read -resize pratodir.wav pratodir;
#X obj 386 769 table pratodir;
#X obj 735 321 tabplay~ tomesq;
#X obj 822 421 table tomesq;
#X obj 1012 782 tabplay~ tomdir;
#X obj 1099 882 table tomdir;
#X msg 987 854 read -resize tomdir.wav tomdir;
#X msg 710 393 read -resize tomesq.wav tomesq;
#X obj 285 10 route /bumbo /caixa /chimbal /tomesq /tomdir /surdo /pratoesq
/pratodir;
#X msg 708 16 route /mylabel;
#X obj 1169 557 dac~;
#X obj 1134 376 receive fromGUI;
#X obj 1134 406 list trim;
#X floatatom 1130 465 5 0 0 0 - - -, f 5;
#X obj 1133 487 * 0.1;
#X obj 1121 436 route /volbateria;
#X obj 1149 529 *~ 1;
#X msg 404 297 list /vibrate 25;
#X msg 216 289 list /vibrate 50;
#X msg 8 299 list /vibrate 100;
#X msg 672 611 list /vibrate 10;
#X obj 720 492 delay 20;
#X obj 718 522 delay 40;
#X obj 718 547 delay 60;
#X obj 791 492 delay 80;
#X obj 789 523 delay 110;
#X obj 788 548 delay 140;
#X obj 870 490 delay 170;
#X obj 873 519 delay 210;
#X obj 871 547 delay 250;
#X obj 1067 952 delay 120;
#X obj 1066 984 delay 160;
#X obj 1065 1009 delay 200;
#X obj 1147 949 delay 240;
#X obj 1150 980 delay 290;
#X obj 1149 1009 delay 340;
#X obj 593 950 delay 40;
#X obj 997 953 delay 30;
#X obj 995 983 delay 60;
#X obj 995 1007 delay 90;
#X obj 591 980 delay 80;
#X obj 591 1005 delay 120;
#X obj 663 949 delay 150;
#X obj 662 981 delay 200;
#X obj 661 1006 delay 250;
#X obj 743 948 delay 300;
#X obj 746 977 delay 360;
#X obj 745 1006 delay 420;
#X obj 1468 35 receive fromGUI;
#X obj 1471 66 list trim;
#X obj 1474 104 route /mySlider;
#X floatatom 1465 168 5 0 0 0 - - -, f 5;
#X floatatom 1467 125 5 0 0 0 - - -, f 5;
#X obj 1465 196 * 2;
#X floatatom 1463 231 5 0 0 0 - - -, f 5;
#X obj 1451 259 expr 1000/($f1/60);
#X floatatom 1451 287 5 0 0 0 - - -, f 5;
#X obj 1392 331 metro;
#X obj 1297 194 receive fromGUI;
#X obj 1297 224 list trim;
#X obj 1300 262 route /mytoogle;
#X obj 1330 302 tgl 15 0 empty empty empty 17 7 0 10 -262144 -1 -1
0 1;
#X obj 1389 370 tgl 15 0 empty empty empty 17 7 0 10 -262144 -1 -1
0 1;
#X obj 1547 384 loadbang;
#X obj 1495 443 soundfiler;
#X obj 1526 350 tabplay~ metro;
#X msg 1465 417 read -resize metro.wav metro;
#X obj 1577 445 table metro;
#X obj 1465 144 + 50;
#X obj 2016 682 dac~;
#X obj 1315 408 receive fromGUI;
#X obj 1315 438 list trim;
#X floatatom 1462 484 5 0 0 0 - - -, f 5;
#X obj 1318 476 route /volmetro;
#X floatatom 1904 39 5 0 0 0 - - -, f 5;
#X obj 1909 111 bng 15 250 50 0 empty empty empty 17 7 0 10 -262144
-1 -1;
#X obj 1900 70 select 1;
#X obj 1830 175 f;
#X obj 1882 176 + 1;
#X floatatom 1824 237 5 0 0 0 - - -, f 5;
#X obj 1776 65 bng 15 250 50 0 empty empty empty 17 7 0 10 -262144
-1 -1;
#X obj 1752 26 select 0;
#X obj 1881 217 mod;
#X msg 2009 102 2;
#X msg 2008 133 3;
#X msg 2007 170 4;
#X msg 2010 69 1;
#X obj 1821 256 select 0 1 2 3;
#X obj 1528 312 bng 15 250 50 0 empty empty empty 17 7 0 10 -262144
-1 -1;
#X obj 1741 312 bng 15 250 50 0 empty empty empty 17 7 0 10 -262144
-1 -1;
#X obj 1947 333 bng 15 250 50 0 empty empty empty 17 7 0 10 -262144
-1 -1;
#X obj 2452 316 bng 15 250 50 0 empty empty empty 17 7 0 10 -262144
-1 -1;
#X msg 1753 94 -1;
#X obj 1770 386 loadbang;
#X obj 1718 445 soundfiler;
#X obj 1749 352 tabplay~ metro;
#X msg 1688 419 read -resize metro.wav metro;
#X obj 1800 447 table metro;
#X obj 2042 380 loadbang;
#X obj 1990 439 soundfiler;
#X obj 2021 346 tabplay~ metro;
#X msg 1960 413 read -resize metro.wav metro;
#X obj 2072 441 table metro;
#X obj 2502 367 loadbang;
#X obj 2450 426 soundfiler;
#X obj 2481 333 tabplay~ metro;
#X msg 2420 400 read -resize metro.wav metro;
#X obj 2532 428 table metro;
#X obj 2072 57 bng 15 250 50 0 empty empty empty 17 7 0 10 -262144
-1 -1;
#X obj 2072 94 bng 15 250 50 0 empty empty empty 17 7 0 10 -262144
-1 -1;
#X obj 2077 124 bng 15 250 50 0 empty empty empty 17 7 0 10 -262144
-1 -1;
#X obj 2075 159 bng 15 250 50 0 empty empty empty 17 7 0 10 -262144
-1 -1;
#X obj 1601 975 send toGUI;
#X obj 1370 731 delay;
#X floatatom 2170 156 5 0 0 0 - - -, f 5;
#X obj 2253 24 receive fromGUI;
#X obj 2253 54 list trim;
#X floatatom 2253 114 5 0 0 0 - - -, f 5;
#X obj 2267 136 + 1;
#X obj 2138 56 sel 1 2 3 4;
#X obj 2257 88 route /compasso;
#X msg 1613 898 1;
#X msg 1645 898 0;
#X obj 1625 923 tgl 15 0 empty empty empty 17 7 0 10 -262144 -1 -1
0 1;
#X obj 1804 966 send toGUI;
#X msg 1828 893 1;
#X msg 1860 893 0;
#X obj 1840 918 tgl 15 0 empty empty empty 17 7 0 10 -262144 -1 -1
0 1;
#X obj 1988 943 send toGUI;
#X msg 2012 870 1;
#X msg 2044 870 0;
#X obj 2024 895 tgl 15 0 empty empty empty 17 7 0 10 -262144 -1 -1
0 1;
#X obj 2353 955 send toGUI;
#X msg 2377 882 1;
#X msg 2409 882 0;
#X obj 2389 907 tgl 15 0 empty empty empty 17 7 0 10 -262144 -1 -1
0 1;
#X msg 1599 945 list /button1 \$1;
#X msg 1814 940 list /button2 \$1;
#X msg 1998 917 list /button33 \$1;
#X msg 2363 929 list /button4 \$1;
#X obj 2069 251 sel 1 2 3 4;
#X obj 1573 516 * 0.1;
#X obj 1616 568 *~ 1;
#X obj 1798 570 *~ 0.4;
#X obj 2154 942 send toGUI;
#X msg 2178 869 1;
#X msg 2210 869 0;
#X obj 2190 894 tgl 15 0 empty empty empty 17 7 0 10 -262144 -1 -1
0 1;
#X msg 2164 916 list /button34 \$1;
#X obj 2015 800 expr $f1 + $f2;
#X floatatom 2001 780 5 0 0 0 - - -, f 5;
#X floatatom 2096 775 5 0 0 0 - - -, f 5;
#X msg 2093 747 3;
#X msg 2145 743 4, f 2;
#X floatatom 2145 774 5 0 0 0 - - -, f 5;
#X obj 2095 833 sel 5 6;
#X msg 1999 754 2;
#X obj 2229 334 bng 15 250 50 0 empty empty empty 17 7 0 10 -262144
-1 -1;
#X obj 2284 385 loadbang;
#X obj 2232 444 soundfiler;
#X obj 2263 351 tabplay~ metro;
#X msg 2202 418 read -resize metro.wav metro;
#X obj 2314 446 table metro;
#X obj 2277 570 *~ 0.8;
#X obj 2010 578 *~ 0.3;
#X obj 2335 740 bng 15 250 50 0 empty empty empty 17 7 0 10 -262144
-1 -1;
#X obj 2292 750 bng 15 250 50 0 empty empty empty 17 7 0 10 -262144
-1 -1;
#X obj 1806 525 * 0.04;
#X obj 1984 530 * 0.03;
#X obj 2233 530 * 0.08;
#X floatatom 1654 541 5 0 0 0 - - -, f 5;
#X obj 2497 548 *~ 0.3;
#X obj 2408 502 * 0.03;
#X obj 1346 58 sel 1;
#X floatatom 1281 725 5 0 0 0 - - -, f 5;
#X obj 1336 674 expr (1*$f1)/2;
#X msg 803 610 list /vibrate 15;
#X msg 936 607 list /vibrate 20;
#X msg 545 1069 list /vibrate 20;
#X msg 676 1068 list /vibrate 25;
#X msg 809 1065 list /vibrate 30;
#X msg 949 1072 list /vibrate 15;
#X msg 1080 1071 list /vibrate 20;
#X msg 1213 1068 list /vibrate 25;
#X obj 526 406 receive fromGUI;
#X obj 526 437 list trim;
#X obj 524 466 route /drumflash;
#X obj 520 496 tgl 15 0 empty empty empty 17 7 0 10 -262144 -1 -1 0
1;
#X obj 410 489 tgl 15 0 empty empty empty 17 7 0 10 -262144 -1 -1 1
1;
#X msg 435 459 0;
#X msg 399 457 1, f 1;
#X obj 460 521 expr $f1*$f2;
#X obj 443 548 tgl 15 0 empty empty empty 17 7 0 10 -262144 -1 -1 0
1;
#X obj 468 591 send toSystem;
#X msg 468 566 list /flash \$1;
#X obj 437 431 delay 35;
#X obj 2126 986 receive fromGUI;
#X obj 2129 1017 list trim;
#X obj 2082 1066 tgl 15 0 empty empty empty 17 7 0 10 -262144 -1 -1
0 1;
#X obj 2022 1091 expr $f1*$f2;
#X obj 2080 1123 tgl 15 0 empty empty empty 17 7 0 10 -262144 -1 -1
0 1;
#X obj 2021 1178 send toSystem;
#X msg 2020 1149 list /flash \$1;
#X obj 2132 1055 route /flashmetronome;
#X connect 0 0 100 0;
#X connect 1 0 2 0;
#X connect 2 0 3 0;
#X connect 2 0 111 0;
#X connect 2 0 287 0;
#X connect 2 0 282 0;
#X connect 3 0 108 0;
#X connect 4 0 13 0;
#X connect 7 0 8 0;
#X connect 8 0 24 0;
#X connect 8 0 109 0;
#X connect 9 0 22 0;
#X connect 11 0 0 0;
#X connect 13 0 5 0;
#X connect 14 0 15 0;
#X connect 15 0 23 0;
#X connect 15 0 110 0;
#X connect 16 0 19 0;
#X connect 19 0 17 0;
#X connect 22 0 10 0;
#X connect 23 0 108 0;
#X connect 24 0 108 0;
#X connect 25 0 26 0;
#X connect 26 0 35 0;
#X connect 26 0 94 0;
#X connect 27 0 99 0;
#X connect 29 0 112 0;
#X connect 31 0 268 0;
#X connect 33 0 269 0;
#X connect 35 0 29 0;
#X connect 35 1 113 0;
#X connect 35 2 114 0;
#X connect 35 3 115 0;
#X connect 35 4 116 0;
#X connect 35 5 117 0;
#X connect 35 6 118 0;
#X connect 35 7 119 0;
#X connect 35 8 120 0;
#X connect 35 9 121 0;
#X connect 36 0 37 0;
#X connect 37 0 46 0;
#X connect 37 0 96 0;
#X connect 38 0 98 0;
#X connect 40 0 273 0;
#X connect 42 0 274 0;
#X connect 44 0 275 0;
#X connect 46 0 40 0;
#X connect 46 1 129 0;
#X connect 46 2 130 0;
#X connect 46 3 131 0;
#X connect 46 4 122 0;
#X connect 46 5 123 0;
#X connect 46 6 124 0;
#X connect 46 7 125 0;
#X connect 46 8 126 0;
#X connect 46 9 127 0;
#X connect 47 0 48 0;
#X connect 48 0 57 0;
#X connect 48 0 58 0;
#X connect 49 0 87 0;
#X connect 51 0 270 0;
#X connect 53 0 271 0;
#X connect 55 0 272 0;
#X connect 57 0 51 0;
#X connect 57 1 128 0;
#X connect 57 2 132 0;
#X connect 57 3 133 0;
#X connect 57 4 134 0;
#X connect 57 5 135 0;
#X connect 57 6 136 0;
#X connect 57 7 137 0;
#X connect 57 8 138 0;
#X connect 57 9 139 0;
#X connect 58 0 108 0;
#X connect 60 0 61 0;
#X connect 61 0 65 0;
#X connect 61 0 90 0;
#X connect 62 0 89 0;
#X connect 64 0 84 0;
#X connect 65 0 64 0;
#X connect 65 1 85 0;
#X connect 65 2 74 0;
#X connect 65 3 75 0;
#X connect 65 4 76 0;
#X connect 65 5 77 0;
#X connect 67 0 68 0;
#X connect 68 0 72 0;
#X connect 68 0 91 0;
#X connect 69 0 92 0;
#X connect 71 0 78 0;
#X connect 72 0 71 0;
#X connect 72 1 79 0;
#X connect 72 2 80 0;
#X connect 72 3 81 0;
#X connect 72 4 82 0;
#X connect 72 5 83 0;
#X connect 74 0 64 0;
#X connect 75 0 64 0;
#X connect 76 0 64 0;
#X connect 77 0 64 0;
#X connect 78 0 73 0;
#X connect 79 0 71 0;
#X connect 80 0 71 0;
#X connect 81 0 71 0;
#X connect 82 0 71 0;
#X connect 83 0 71 0;
#X connect 84 0 66 0;
#X connect 85 0 64 0;
#X connect 87 0 50 0;
#X connect 89 0 63 0;
#X connect 90 0 108 0;
#X connect 91 0 108 0;
#X connect 92 0 70 0;
#X connect 94 0 108 0;
#X connect 96 0 108 0;
#X connect 98 0 39 0;
#X connect 99 0 28 0;
#X connect 100 0 1 0;
#X connect 100 1 14 0;
#X connect 100 2 7 0;
#X connect 100 3 25 0;
#X connect 100 4 36 0;
#X connect 100 5 47 0;
#X connect 100 6 60 0;
#X connect 100 7 67 0;
#X connect 103 0 104 0;
#X connect 104 0 107 0;
#X connect 105 0 106 0;
#X connect 106 0 108 1;
#X connect 107 0 105 0;
#X connect 108 0 102 0;
#X connect 108 0 102 1;
#X connect 109 0 86 0;
#X connect 110 0 18 0;
#X connect 111 0 12 0;
#X connect 112 0 30 0;
#X connect 113 0 29 0;
#X connect 114 0 29 0;
#X connect 115 0 29 0;
#X connect 116 0 31 0;
#X connect 117 0 31 0;
#X connect 118 0 31 0;
#X connect 119 0 33 0;
#X connect 120 0 33 0;
#X connect 121 0 33 0;
#X connect 122 0 42 0;
#X connect 123 0 42 0;
#X connect 124 0 42 0;
#X connect 125 0 44 0;
#X connect 126 0 44 0;
#X connect 127 0 44 0;
#X connect 128 0 51 0;
#X connect 129 0 40 0;
#X connect 130 0 40 0;
#X connect 131 0 40 0;
#X connect 132 0 51 0;
#X connect 133 0 51 0;
#X connect 134 0 53 0;
#X connect 135 0 53 0;
#X connect 136 0 53 0;
#X connect 137 0 55 0;
#X connect 138 0 55 0;
#X connect 139 0 55 0;
#X connect 140 0 141 0;
#X connect 141 0 142 0;
#X connect 142 0 144 0;
#X connect 143 0 145 0;
#X connect 144 0 160 0;
#X connect 145 0 146 0;
#X connect 146 0 147 0;
#X connect 147 0 148 0;
#X connect 148 0 149 1;
#X connect 148 0 267 0;
#X connect 149 0 154 0;
#X connect 150 0 151 0;
#X connect 151 0 152 0;
#X connect 152 0 153 0;
#X connect 153 0 149 0;
#X connect 153 0 173 0;
#X connect 153 0 265 0;
#X connect 154 0 166 0;
#X connect 155 0 158 0;
#X connect 157 0 234 0;
#X connect 158 0 156 0;
#X connect 160 0 143 0;
#X connect 162 0 163 0;
#X connect 163 0 165 0;
#X connect 164 0 233 0;
#X connect 164 0 259 0;
#X connect 164 0 260 0;
#X connect 164 0 261 0;
#X connect 164 0 264 0;
#X connect 165 0 164 0;
#X connect 166 0 168 0;
#X connect 167 0 169 0;
#X connect 168 0 167 0;
#X connect 169 0 170 0;
#X connect 169 0 171 0;
#X connect 170 0 174 0;
#X connect 171 0 179 0;
#X connect 172 0 184 0;
#X connect 173 0 172 0;
#X connect 174 0 169 1;
#X connect 175 0 174 1;
#X connect 176 0 174 1;
#X connect 177 0 174 1;
#X connect 178 0 174 1;
#X connect 179 0 180 0;
#X connect 179 1 181 0;
#X connect 179 2 248 0;
#X connect 179 3 183 0;
#X connect 180 0 157 0;
#X connect 180 0 205 0;
#X connect 180 0 213 0;
#X connect 181 0 187 0;
#X connect 181 0 205 0;
#X connect 181 0 217 0;
#X connect 182 0 192 0;
#X connect 182 0 205 0;
#X connect 182 0 221 0;
#X connect 183 0 197 0;
#X connect 183 0 205 0;
#X connect 183 0 225 0;
#X connect 184 0 169 0;
#X connect 185 0 188 0;
#X connect 187 0 235 0;
#X connect 188 0 186 0;
#X connect 190 0 193 0;
#X connect 192 0 256 0;
#X connect 193 0 191 0;
#X connect 195 0 198 0;
#X connect 197 0 263 0;
#X connect 198 0 196 0;
#X connect 200 0 178 0;
#X connect 201 0 175 0;
#X connect 202 0 176 0;
#X connect 203 0 177 0;
#X connect 205 0 214 0;
#X connect 205 0 218 0;
#X connect 205 0 222 0;
#X connect 205 0 226 0;
#X connect 205 0 238 0;
#X connect 206 0 211 0;
#X connect 206 0 232 0;
#X connect 207 0 208 0;
#X connect 208 0 212 0;
#X connect 209 0 210 0;
#X connect 210 0 206 0;
#X connect 211 0 200 0;
#X connect 211 1 201 0;
#X connect 211 2 202 0;
#X connect 211 3 203 0;
#X connect 212 0 209 0;
#X connect 213 0 215 0;
#X connect 214 0 215 0;
#X connect 215 0 228 0;
#X connect 215 0 291 0;
#X connect 217 0 219 0;
#X connect 218 0 219 0;
#X connect 219 0 229 0;
#X connect 219 0 291 0;
#X connect 221 0 223 0;
#X connect 222 0 223 0;
#X connect 223 0 230 0;
#X connect 223 0 291 0;
#X connect 225 0 227 0;
#X connect 226 0 227 0;
#X connect 227 0 231 0;
#X connect 227 0 291 0;
#X connect 228 0 204 0;
#X connect 229 0 216 0;
#X connect 230 0 220 0;
#X connect 231 0 224 0;
#X connect 232 2 244 0;
#X connect 232 3 245 0;
#X connect 233 0 234 1;
#X connect 233 0 262 0;
#X connect 234 0 161 0;
#X connect 234 0 161 1;
#X connect 235 0 161 0;
#X connect 235 0 161 1;
#X connect 237 0 239 0;
#X connect 238 0 239 0;
#X connect 239 0 240 0;
#X connect 239 0 291 0;
#X connect 240 0 236 0;
#X connect 241 0 247 0;
#X connect 242 0 241 0;
#X connect 243 0 241 1;
#X connect 244 0 243 0;
#X connect 245 0 246 0;
#X connect 246 0 241 1;
#X connect 247 0 182 0;
#X connect 247 0 258 0;
#X connect 247 1 249 0;
#X connect 247 1 257 0;
#X connect 248 0 242 0;
#X connect 249 0 252 0;
#X connect 249 0 205 0;
#X connect 249 0 237 0;
#X connect 250 0 253 0;
#X connect 252 0 255 0;
#X connect 253 0 251 0;
#X connect 255 0 161 0;
#X connect 255 0 161 1;
#X connect 256 0 161 0;
#X connect 256 0 161 1;
#X connect 259 0 235 1;
#X connect 260 0 256 1;
#X connect 261 0 255 1;
#X connect 263 0 161 0;
#X connect 263 0 161 1;
#X connect 264 0 263 1;
#X connect 265 0 144 0;
#X connect 267 0 205 1;
#X connect 267 0 266 0;
#X connect 268 0 32 0;
#X connect 269 0 34 0;
#X connect 270 0 52 0;
#X connect 271 0 54 0;
#X connect 272 0 56 0;
#X connect 273 0 41 0;
#X connect 274 0 43 0;
#X connect 275 0 45 0;
#X connect 276 0 277 0;
#X connect 277 0 278 0;
#X connect 278 0 279 0;
#X connect 279 0 283 1;
#X connect 280 0 283 0;
#X connect 281 0 280 0;
#X connect 282 0 280 0;
#X connect 283 0 284 0;
#X connect 284 0 286 0;
#X connect 286 0 285 0;
#X connect 287 0 281 0;
#X connect 288 0 289 0;
#X connect 289 0 295 0;
#X connect 290 0 291 1;
#X connect 291 0 292 0;
#X connect 292 0 294 0;
#X connect 294 0 293 0;
#X connect 295 0 290 0;
