#N canvas -8 -8 1366 725 10;
#X obj 145 605 bng 15 250 50 0 empty empty empty 17 7 0 10 -262144
-1 -1;
#X obj 511 57 adc~;
#X obj 277 564 bng 15 250 50 0 empty empty empty 17 7 0 10 -262144
-1 -1;
#X obj 414 573 bng 15 250 50 0 empty empty empty 17 7 0 10 -262144
-1 -1;
#X msg 159 684 1;
#X msg 196 684 0;
#X obj 176 709 tgl 15 0 empty empty empty 17 7 0 10 -262144 -1 -1 0
1;
#X obj 164 751 send toGUI;
#X msg 275 617 1;
#X msg 307 617 0;
#X obj 300 672 tgl 15 0 empty empty empty 17 7 0 10 -262144 -1 -1 0
1;
#X obj 290 736 send toGUI;
#X msg 407 621 1;
#X msg 439 621 0;
#X obj 432 676 tgl 15 0 empty empty empty 17 7 0 10 -262144 -1 -1 0
1;
#X obj 422 766 send toGUI;
#X obj 141 806 send toSystem;
#X obj 285 808 send toSystem;
#X obj 434 832 send toSystem;
#X obj 542 217 bonk~;
#X obj 599 127 rmstodb;
#X floatatom 599 154 5 0 0 0 - - -, f 5;
#X obj 599 173 - 100;
#X floatatom 599 198 5 0 0 0 - - -, f 5;
#X obj 183 631 delay 200;
#X obj 307 594 delay 200;
#X obj 439 598 delay 200;
#X obj 546 293 tgl 15 0 empty empty empty 17 7 0 10 -262144 -1 -1 0
1;
#X msg 357 119 useloudness 0.1;
#X msg 1005 342 1;
#X msg 802 344 1;
#X msg 1199 297 1;
#X obj 1012 286 threshold~;
#X obj 1199 273 threshold~;
#X msg 1199 244 set \$1 80 \$1 300;
#X floatatom 1207 214 5 0 0 0 - - -, f 5;
#X obj 905 394 tgl 15 0 empty empty empty 17 7 0 10 -262144 -1 -1 0
1;
#X obj 1024 387 tgl 15 0 empty empty empty 17 7 0 10 -262144 -1 -1
0 1;
#X obj 1219 343 tgl 15 0 empty empty empty 17 7 0 10 -262144 -1 -1
0 1;
#X floatatom 851 451 5 0 0 0 - - -, f 5;
#X floatatom 1023 431 5 0 0 0 - - -, f 5;
#X floatatom 1170 430 5 0 0 0 - - -, f 5;
#X obj 1057 353 delay 100;
#X obj 1238 306 delay 100;
#X obj 619 365 tgl 15 0 empty empty empty 17 7 0 10 -262144 -1 -1 0
1;
#X obj 625 305 delay 100;
#X floatatom 723 392 5 0 0 0 - - -, f 5;
#X obj 880 354 delay 100;
#X msg 512 171 minvel 20;
#X obj 762 481 expr $f1 + $f2;
#X floatatom 764 525 5 0 0 0 - - -, f 5;
#X obj 761 556 sel 2;
#X obj 763 599 bng 15 250 50 0 empty empty empty 17 7 0 10 -262144
-1 -1;
#X obj 930 498 expr $f1 + $f2;
#X floatatom 932 542 5 0 0 0 - - -, f 5;
#X obj 929 573 sel 2;
#X obj 931 616 bng 15 250 50 0 empty empty empty 17 7 0 10 -262144
-1 -1;
#X obj 1149 492 expr $f1 + $f2;
#X floatatom 1151 536 5 0 0 0 - - -, f 5;
#X obj 1148 567 sel 2;
#X obj 1150 610 bng 15 250 50 0 empty empty empty 17 7 0 10 -262144
-1 -1;
#X obj 582 303 bng 15 250 50 0 empty empty empty 17 7 0 10 -262144
-1 -1;
#X msg 592 332 1;
#X msg 638 336 0;
#X msg 808 258 set \$1 80 \$1 300;
#X floatatom 816 228 5 0 0 0 - - -, f 5;
#X msg 1002 246 set \$1 80 \$1 300;
#X floatatom 1010 216 5 0 0 0 - - -, f 5;
#X msg 144 778 list /vibrate 50;
#X msg 289 786 list /vibrate 100;
#X obj 974 80 bng 15 250 50 0 empty empty empty 17 7 0 10 -262144 -1
-1;
#X obj 1019 81 bng 15 250 50 0 empty empty empty 17 7 0 10 -262144
-1 -1;
#X obj 1058 82 bng 15 250 50 0 empty empty empty 17 7 0 10 -262144
-1 -1;
#X obj 848 16 receive fromGUI;
#X obj 848 46 list trim;
#X obj 851 84 route /mySlider;
#X floatatom 848 106 5 0 0 0 - - -, f 5;
#X obj 1197 62 bng 15 250 50 0 empty empty empty 17 7 0 10 -262144
-1 -1;
#X obj 1152 19 threshold~ 50 5;
#X msg 773 194 80;
#X obj 803 293 threshold~;
#X msg 818 191 86;
#X msg 1011 179 92;
#X obj 975 45 sel 2 1 0;
#X floatatom 691 153 5 0 0 0 - - -, f 5;
#X floatatom 691 219 5 0 0 0 - - -, f 5;
#X obj 690 185 rmstodb;
#X msg 856 191 92;
#X msg 970 183 86;
#X msg 1048 181 98;
#X obj 702 100 env~ 256 128;
#X msg 1167 177 92;
#X msg 1208 177 98;
#X msg 1248 175 104;
#X msg 443 794 list /vibrate 200;
#X obj 1527 42 receive fromGUI;
#X obj 1530 73 list trim;
#X obj 1533 111 route /mySlider;
#X floatatom 1524 175 5 0 0 0 - - -, f 5;
#X floatatom 1526 132 5 0 0 0 - - -, f 5;
#X obj 1524 203 * 2;
#X floatatom 1522 238 5 0 0 0 - - -, f 5;
#X obj 1510 266 expr 1000/($f1/60);
#X floatatom 1510 294 5 0 0 0 - - -, f 5;
#X obj 1451 338 metro;
#X obj 1356 201 receive fromGUI;
#X obj 1356 231 list trim;
#X obj 1359 269 route /mytoogle;
#X obj 1389 309 tgl 15 0 empty empty empty 17 7 0 10 -262144 -1 -1
0 1;
#X obj 1448 377 tgl 15 0 empty empty empty 17 7 0 10 -262144 -1 -1
0 1;
#X obj 1718 391 loadbang;
#X obj 1666 450 soundfiler;
#X obj 1697 357 tabplay~ metro;
#X msg 1636 424 read -resize metro.wav metro;
#X obj 1748 452 table metro;
#X obj 1524 151 + 50;
#X obj 1374 415 receive fromGUI;
#X obj 1374 445 list trim;
#X floatatom 1521 491 5 0 0 0 - - -, f 5;
#X obj 1377 483 route /volmetro;
#X floatatom 1963 46 5 0 0 0 - - -, f 5;
#X obj 1968 118 bng 15 250 50 0 empty empty empty 17 7 0 10 -262144
-1 -1;
#X obj 1959 77 select 1;
#X obj 1889 182 f;
#X obj 1941 183 + 1;
#X floatatom 1883 244 5 0 0 0 - - -, f 5;
#X obj 1835 72 bng 15 250 50 0 empty empty empty 17 7 0 10 -262144
-1 -1;
#X obj 1811 33 select 0;
#X obj 1940 224 mod;
#X msg 2068 109 2;
#X msg 2067 140 3;
#X msg 2066 177 4;
#X msg 2069 76 1;
#X obj 1880 263 select 0 1 2 3;
#X obj 1699 319 bng 15 250 50 0 empty empty empty 17 7 0 10 -262144
-1 -1;
#X obj 1912 319 bng 15 250 50 0 empty empty empty 17 7 0 10 -262144
-1 -1;
#X obj 2118 340 bng 15 250 50 0 empty empty empty 17 7 0 10 -262144
-1 -1;
#X obj 2662 331 bng 15 250 50 0 empty empty empty 17 7 0 10 -262144
-1 -1;
#X msg 1812 101 -1;
#X obj 1941 393 loadbang;
#X obj 1889 452 soundfiler;
#X obj 1920 359 tabplay~ metro;
#X msg 1859 426 read -resize metro.wav metro;
#X obj 1971 454 table metro;
#X obj 2213 387 loadbang;
#X obj 2161 446 soundfiler;
#X obj 2192 353 tabplay~ metro;
#X msg 2131 420 read -resize metro.wav metro;
#X obj 2243 448 table metro;
#X obj 2712 382 loadbang;
#X obj 2660 441 soundfiler;
#X obj 2691 348 tabplay~ metro;
#X msg 2630 415 read -resize metro.wav metro;
#X obj 2742 443 table metro;
#X obj 2131 64 bng 15 250 50 0 empty empty empty 17 7 0 10 -262144
-1 -1;
#X obj 2131 101 bng 15 250 50 0 empty empty empty 17 7 0 10 -262144
-1 -1;
#X obj 2136 131 bng 15 250 50 0 empty empty empty 17 7 0 10 -262144
-1 -1;
#X obj 2134 166 bng 15 250 50 0 empty empty empty 17 7 0 10 -262144
-1 -1;
#X obj 1627 1151 send toGUI;
#X obj 1660 955 delay;
#X floatatom 1353 613 5 0 0 0 - - -, f 5;
#X obj 1415 747 delay;
#X obj 1383 569 expr (1.714*$f1)/4.2;
#X floatatom 2229 163 5 0 0 0 - - -, f 5;
#X obj 2312 31 receive fromGUI;
#X obj 2312 61 list trim;
#X floatatom 2312 121 5 0 0 0 - - -, f 5;
#X obj 2326 143 + 1;
#X obj 2197 63 sel 1 2 3 4;
#X obj 2316 95 route /compasso;
#X obj 1874 958 delay;
#X obj 2049 952 delay;
#X obj 2431 956 delay;
#X msg 1651 1078 1;
#X msg 1683 1078 0;
#X obj 1663 1103 tgl 15 0 empty empty empty 17 7 0 10 -262144 -1 -1
0 1;
#X obj 1842 1146 send toGUI;
#X msg 1866 1073 1;
#X msg 1898 1073 0;
#X obj 1878 1098 tgl 15 0 empty empty empty 17 7 0 10 -262144 -1 -1
0 1;
#X obj 2026 1123 send toGUI;
#X msg 2050 1050 1;
#X msg 2082 1050 0;
#X obj 2062 1075 tgl 15 0 empty empty empty 17 7 0 10 -262144 -1 -1
0 1;
#X obj 2391 1135 send toGUI;
#X msg 2415 1062 1;
#X msg 2447 1062 0;
#X obj 2427 1087 tgl 15 0 empty empty empty 17 7 0 10 -262144 -1 -1
0 1;
#X msg 1637 1125 list /button1 \$1;
#X msg 1852 1120 list /button2 \$1;
#X msg 2036 1097 list /button33 \$1;
#X msg 2401 1109 list /button4 \$1;
#X obj 2128 258 sel 1 2 3 4;
#X obj 1632 523 * 0.1;
#X obj 1675 575 *~ 1;
#X obj 1857 577 *~ 0.4;
#X obj 2216 941 delay;
#X obj 2192 1122 send toGUI;
#X msg 2216 1049 1;
#X msg 2248 1049 0;
#X obj 2228 1074 tgl 15 0 empty empty empty 17 7 0 10 -262144 -1 -1
0 1;
#X msg 2202 1096 list /button34 \$1;
#X obj 2060 816 expr $f1 + $f2;
#X floatatom 2046 796 5 0 0 0 - - -, f 5;
#X floatatom 2141 791 5 0 0 0 - - -, f 5;
#X msg 2138 763 3;
#X msg 2190 759 4, f 2;
#X floatatom 2190 790 5 0 0 0 - - -, f 5;
#X obj 2140 849 sel 5 6;
#X msg 2044 770 2;
#X obj 2400 341 bng 15 250 50 0 empty empty empty 17 7 0 10 -262144
-1 -1;
#X obj 2455 392 loadbang;
#X obj 2403 451 soundfiler;
#X obj 2434 358 tabplay~ metro;
#X msg 2373 425 read -resize metro.wav metro;
#X obj 2485 453 table metro;
#X obj 2336 577 *~ 0.8;
#X obj 2069 585 *~ 0.3;
#X obj 1865 532 * 0.04;
#X obj 2043 537 * 0.03;
#X obj 2292 537 * 0.08;
#X floatatom 1713 548 5 0 0 0 - - -, f 5;
#X obj 2707 563 *~ 0.3;
#X obj 2618 517 * 0.03;
#X obj 1376 354 sel 1;
#X obj 1395 681 expr (1*$f1)/2;
#X obj 2155 1400 receive fromGUI;
#X obj 2155 1430 list trim;
#X obj 2158 1468 route /flash;
#X obj 1635 1324 send toGUI;
#X obj 1850 1319 send toGUI;
#X obj 2034 1296 send toGUI;
#X obj 2399 1308 send toGUI;
#X obj 2200 1295 send toGUI;
#X msg 1617 1272 list /button1fs \$1;
#X msg 1860 1293 list /button2fs \$1;
#X msg 2044 1270 list /button33fs \$1;
#X msg 2210 1269 list /button34fs \$1;
#X msg 2409 1282 list /button4fs \$1;
#X obj 2012 1647 send toSystem;
#X msg 2022 1622 list /flash \$1;
#X msg 1579 372;
#X obj 1994 1562 expr $f1*$f2;
#X obj 2151 1522 tgl 15 0 empty empty empty 17 7 0 10 -262144 -1 -1
0 1;
#X obj 2000 1592 tgl 15 0 empty empty empty 17 7 0 10 -262144 -1 -1
0 1;
#X obj 757 720 receive fromGUI;
#X obj 757 750 list trim;
#X obj 614 967 send toSystem;
#X obj 596 882 expr $f1*$f2;
#X obj 753 842 tgl 15 0 empty empty empty 17 7 0 10 -262144 -1 -1 0
1;
#X obj 602 912 tgl 15 0 empty empty empty 17 7 0 10 -262144 -1 -1 0
1;
#X msg 159 730 list /buttton1 \$1;
#X msg 292 715 list /buttton2 \$1;
#X msg 422 742 list /buttton3 \$1;
#X obj 760 788 route /flash2;
#X msg 624 942 list /flash \$1;
#X connect 0 0 4 0;
#X connect 0 0 68 0;
#X connect 0 0 24 0;
#X connect 1 0 19 0;
#X connect 1 0 90 0;
#X connect 2 0 8 0;
#X connect 2 0 69 0;
#X connect 2 0 25 0;
#X connect 3 0 12 0;
#X connect 3 0 26 0;
#X connect 3 0 94 0;
#X connect 4 0 6 0;
#X connect 5 0 6 0;
#X connect 6 0 251 0;
#X connect 6 0 248 0;
#X connect 8 0 10 0;
#X connect 9 0 10 0;
#X connect 10 0 252 0;
#X connect 10 0 248 0;
#X connect 12 0 14 0;
#X connect 13 0 14 0;
#X connect 14 0 253 0;
#X connect 14 0 248 0;
#X connect 19 0 20 0;
#X connect 20 0 21 0;
#X connect 21 0 22 0;
#X connect 22 0 23 0;
#X connect 23 0 27 0;
#X connect 23 0 61 0;
#X connect 24 0 5 0;
#X connect 25 0 9 0;
#X connect 26 0 13 0;
#X connect 27 0 48 0;
#X connect 27 0 28 0;
#X connect 28 0 19 0;
#X connect 29 0 37 0;
#X connect 30 0 36 0;
#X connect 31 0 38 0;
#X connect 32 0 29 0;
#X connect 32 0 42 0;
#X connect 33 0 31 0;
#X connect 33 0 43 0;
#X connect 34 0 33 0;
#X connect 35 0 34 0;
#X connect 36 0 39 0;
#X connect 37 0 40 0;
#X connect 38 0 41 0;
#X connect 39 0 49 1;
#X connect 40 0 53 1;
#X connect 41 0 57 1;
#X connect 42 0 37 0;
#X connect 43 0 38 0;
#X connect 44 0 46 0;
#X connect 45 0 63 0;
#X connect 46 0 49 0;
#X connect 46 0 53 0;
#X connect 46 0 57 0;
#X connect 47 0 36 0;
#X connect 49 0 50 0;
#X connect 50 0 51 0;
#X connect 51 0 52 0;
#X connect 52 0 0 0;
#X connect 53 0 54 0;
#X connect 54 0 55 0;
#X connect 55 0 56 0;
#X connect 56 0 2 0;
#X connect 57 0 58 0;
#X connect 58 0 59 0;
#X connect 59 0 60 0;
#X connect 60 0 3 0;
#X connect 61 0 62 0;
#X connect 61 0 45 0;
#X connect 62 0 44 0;
#X connect 63 0 44 0;
#X connect 64 0 80 0;
#X connect 65 0 64 0;
#X connect 66 0 32 0;
#X connect 67 0 66 0;
#X connect 68 0 16 0;
#X connect 69 0 17 0;
#X connect 70 0 79 0;
#X connect 70 0 88 0;
#X connect 70 0 91 0;
#X connect 71 0 81 0;
#X connect 71 0 82 0;
#X connect 71 0 92 0;
#X connect 72 0 87 0;
#X connect 72 0 89 0;
#X connect 72 0 93 0;
#X connect 73 0 74 0;
#X connect 74 0 75 0;
#X connect 75 0 76 0;
#X connect 76 0 83 0;
#X connect 77 0 81 0;
#X connect 77 0 82 0;
#X connect 77 0 92 0;
#X connect 78 0 77 0;
#X connect 79 0 65 0;
#X connect 80 0 30 0;
#X connect 80 0 47 0;
#X connect 81 0 65 0;
#X connect 82 0 67 0;
#X connect 83 0 70 0;
#X connect 83 1 71 0;
#X connect 83 2 72 0;
#X connect 84 0 86 0;
#X connect 86 0 85 0;
#X connect 87 0 65 0;
#X connect 88 0 67 0;
#X connect 89 0 67 0;
#X connect 90 0 32 0;
#X connect 90 0 33 0;
#X connect 90 0 78 0;
#X connect 90 0 80 0;
#X connect 90 0 84 0;
#X connect 91 0 35 0;
#X connect 92 0 35 0;
#X connect 93 0 35 0;
#X connect 94 0 18 0;
#X connect 95 0 96 0;
#X connect 96 0 97 0;
#X connect 97 0 99 0;
#X connect 98 0 100 0;
#X connect 99 0 115 0;
#X connect 100 0 101 0;
#X connect 101 0 102 0;
#X connect 102 0 103 0;
#X connect 103 0 104 1;
#X connect 103 0 162 0;
#X connect 103 0 225 0;
#X connect 104 0 109 0;
#X connect 105 0 106 0;
#X connect 106 0 107 0;
#X connect 107 0 108 0;
#X connect 108 0 104 0;
#X connect 108 0 127 0;
#X connect 108 0 224 0;
#X connect 108 0 241 0;
#X connect 109 0 120 0;
#X connect 110 0 113 0;
#X connect 112 0 194 0;
#X connect 113 0 111 0;
#X connect 115 0 98 0;
#X connect 116 0 117 0;
#X connect 117 0 119 0;
#X connect 118 0 193 0;
#X connect 118 0 218 0;
#X connect 118 0 219 0;
#X connect 118 0 220 0;
#X connect 118 0 223 0;
#X connect 119 0 118 0;
#X connect 120 0 122 0;
#X connect 121 0 123 0;
#X connect 122 0 121 0;
#X connect 123 0 124 0;
#X connect 123 0 125 0;
#X connect 124 0 128 0;
#X connect 125 0 133 0;
#X connect 126 0 138 0;
#X connect 127 0 126 0;
#X connect 128 0 123 1;
#X connect 129 0 128 1;
#X connect 130 0 128 1;
#X connect 131 0 128 1;
#X connect 132 0 128 1;
#X connect 133 0 134 0;
#X connect 133 1 135 0;
#X connect 133 2 209 0;
#X connect 133 3 137 0;
#X connect 134 0 112 0;
#X connect 134 0 159 0;
#X connect 135 0 141 0;
#X connect 135 0 170 0;
#X connect 136 0 146 0;
#X connect 137 0 151 0;
#X connect 137 0 172 0;
#X connect 138 0 123 0;
#X connect 139 0 142 0;
#X connect 141 0 195 0;
#X connect 142 0 140 0;
#X connect 144 0 147 0;
#X connect 146 0 217 0;
#X connect 147 0 145 0;
#X connect 149 0 152 0;
#X connect 151 0 222 0;
#X connect 152 0 150 0;
#X connect 154 0 132 0;
#X connect 155 0 129 0;
#X connect 156 0 130 0;
#X connect 157 0 131 0;
#X connect 159 0 173 0;
#X connect 159 0 161 0;
#X connect 161 0 174 0;
#X connect 161 0 178 0;
#X connect 161 0 182 0;
#X connect 161 0 186 0;
#X connect 161 0 199 0;
#X connect 162 0 159 1;
#X connect 162 0 160 0;
#X connect 162 0 170 1;
#X connect 162 0 171 1;
#X connect 162 0 172 1;
#X connect 162 0 196 1;
#X connect 163 0 168 0;
#X connect 163 0 192 0;
#X connect 164 0 165 0;
#X connect 165 0 169 0;
#X connect 166 0 167 0;
#X connect 167 0 163 0;
#X connect 168 0 154 0;
#X connect 168 1 155 0;
#X connect 168 2 156 0;
#X connect 168 3 157 0;
#X connect 169 0 166 0;
#X connect 170 0 177 0;
#X connect 170 0 161 0;
#X connect 171 0 181 0;
#X connect 171 0 161 0;
#X connect 172 0 185 0;
#X connect 172 0 161 0;
#X connect 173 0 175 0;
#X connect 174 0 175 0;
#X connect 175 0 188 0;
#X connect 175 0 234 0;
#X connect 175 0 242 0;
#X connect 177 0 179 0;
#X connect 178 0 179 0;
#X connect 179 0 189 0;
#X connect 179 0 235 0;
#X connect 179 0 242 0;
#X connect 181 0 183 0;
#X connect 182 0 183 0;
#X connect 183 0 190 0;
#X connect 183 0 236 0;
#X connect 183 0 242 0;
#X connect 185 0 187 0;
#X connect 186 0 187 0;
#X connect 187 0 191 0;
#X connect 187 0 238 0;
#X connect 187 0 242 0;
#X connect 188 0 158 0;
#X connect 189 0 176 0;
#X connect 190 0 180 0;
#X connect 191 0 184 0;
#X connect 192 2 205 0;
#X connect 192 3 206 0;
#X connect 193 0 194 1;
#X connect 193 0 221 0;
#X connect 196 0 198 0;
#X connect 196 0 161 0;
#X connect 198 0 200 0;
#X connect 199 0 200 0;
#X connect 200 0 201 0;
#X connect 200 0 237 0;
#X connect 200 0 242 0;
#X connect 201 0 197 0;
#X connect 202 0 208 0;
#X connect 203 0 202 0;
#X connect 204 0 202 1;
#X connect 205 0 204 0;
#X connect 206 0 207 0;
#X connect 207 0 202 1;
#X connect 208 0 171 0;
#X connect 208 0 136 0;
#X connect 208 1 196 0;
#X connect 208 1 210 0;
#X connect 209 0 203 0;
#X connect 210 0 213 0;
#X connect 211 0 214 0;
#X connect 213 0 216 0;
#X connect 214 0 212 0;
#X connect 218 0 195 1;
#X connect 219 0 217 1;
#X connect 220 0 216 1;
#X connect 223 0 222 1;
#X connect 224 0 99 0;
#X connect 225 0 161 1;
#X connect 226 0 227 0;
#X connect 227 0 228 0;
#X connect 228 0 243 0;
#X connect 234 0 229 0;
#X connect 235 0 230 0;
#X connect 236 0 231 0;
#X connect 237 0 233 0;
#X connect 238 0 232 0;
#X connect 240 0 239 0;
#X connect 242 0 244 0;
#X connect 243 0 242 1;
#X connect 244 0 240 0;
#X connect 245 0 246 0;
#X connect 246 0 254 0;
#X connect 248 0 250 0;
#X connect 249 0 248 1;
#X connect 250 0 255 0;
#X connect 251 0 7 0;
#X connect 252 0 11 0;
#X connect 253 0 15 0;
#X connect 254 0 249 0;
#X connect 255 0 247 0;
