#N canvas -8 -8 1366 725 10;
#X obj 175 57 adc~;
#X floatatom 290 524 5 0 0 0 - - -, f 5;
#X floatatom 123 772 5 0 0 0 - - -, f 5;
#X msg 74 898 1;
#X msg 132 916 0;
#X obj 88 940 tgl 15 0 empty empty empty 17 7 0 10 -262144 -1 -1 0
1;
#X msg 319 891 1;
#X msg 377 909 0;
#X obj 331 932 tgl 15 0 empty empty empty 17 7 0 10 -262144 -1 -1 0
1;
#X obj 82 992 send toGUI;
#X obj 332 981 send toGUI;
#X obj 538 832 t b b;
#X msg 520 869 1;
#X msg 578 887 0;
#X obj 532 915 tgl 15 0 empty empty empty 17 7 0 10 -262144 -1 -1 0
1;
#X obj 532 966 send toGUI;
#X obj 1246 1535 t b b;
#X msg 1228 1572 1;
#X msg 1286 1590 0;
#X obj 1240 1618 tgl 15 0 empty empty empty 17 7 0 10 -262144 -1 -1
0 1;
#X obj 1243 1678 send toGUI;
#X obj 813 832 t b b;
#X msg 795 869 1;
#X msg 853 887 0;
#X obj 807 915 tgl 15 0 empty empty empty 17 7 0 10 -262144 -1 -1 0
1;
#X obj 807 966 send toGUI;
#X obj 1067 835 t b b;
#X msg 1049 872 1;
#X msg 1107 890 0;
#X obj 1061 918 tgl 15 0 empty empty empty 17 7 0 10 -262144 -1 -1
0 1;
#X obj 1061 969 send toGUI;
#X obj 1363 839 t b b;
#X msg 1345 876 1;
#X msg 1403 894 0;
#X obj 1361 917 tgl 15 0 empty empty empty 17 7 0 10 -262144 -1 -1
0 1;
#X obj 1357 973 send toGUI;
#X obj 1668 838 t b b;
#X msg 1650 875 1;
#X msg 1708 893 0;
#X obj 1662 921 tgl 15 0 empty empty empty 17 7 0 10 -262144 -1 -1
0 1;
#X obj 1662 972 send toGUI;
#X obj 63 1515 t b b;
#X msg 45 1552 1;
#X msg 103 1570 0;
#X obj 57 1598 tgl 15 0 empty empty empty 17 7 0 10 -262144 -1 -1 0
1;
#X obj 57 1649 send toGUI;
#X obj 379 1527 t b b;
#X msg 361 1564 1;
#X msg 419 1582 0;
#X obj 373 1610 tgl 15 0 empty empty empty 17 7 0 10 -262144 -1 -1
0 1;
#X obj 373 1661 send toGUI;
#X obj 729 1534 t b b;
#X msg 711 1571 1;
#X msg 769 1589 0;
#X obj 723 1617 tgl 15 0 empty empty empty 17 7 0 10 -262144 -1 -1
0 1;
#X obj 723 1668 send toGUI;
#X msg 82 968 list /C \$1;
#X msg 332 957 list /Csus \$1;
#X msg 532 942 list /D \$1;
#X msg 807 942 list /Dsus \$1;
#X msg 1061 945 list /E \$1;
#X msg 1357 949 list /F \$1;
#X msg 1662 948 list /Fsus \$1;
#X msg 57 1625 list /G \$1;
#X msg 373 1637 list /Gsus \$1;
#X obj 1002 1539 t b b;
#X msg 984 1576 1;
#X msg 1042 1594 0;
#X obj 996 1622 tgl 15 0 empty empty empty 17 7 0 10 -262144 -1 -1
0 1;
#X obj 996 1673 send toGUI;
#X msg 723 1644 list /A \$1;
#X msg 996 1649 list /Asus \$1;
#X msg 1240 1645 list /B \$1;
#X obj 117 709 mod 12;
#X obj 93 833 t b b;
#X obj 338 819 t b b;
#X obj 513 599 sel 0 1 2 3 4 5 6 7 8 9 10 11;
#X floatatom 20 504 5 0 0 0 - - -, f 5;
#X obj 67 594 int;
#X obj 116 565 + 0.5;
#X msg 176 326 minpower \$1;
#X obj 208 158 env~;
#X obj 265 233 bng 15 250 50 0 empty empty empty 17 7 0 10 -262144
-1 -1;
#X obj 50 948 bng 15 250 50 0 empty empty empty 17 7 0 10 -262144 -1
-1;
#X obj 302 937 bng 15 250 50 0 empty empty empty 17 7 0 10 -262144
-1 -1;
#X obj 503 948 bng 15 250 50 0 empty empty empty 17 7 0 10 -262144
-1 -1;
#X obj 761 943 bng 15 250 50 0 empty empty empty 17 7 0 10 -262144
-1 -1;
#X obj 1030 934 bng 15 250 50 0 empty empty empty 17 7 0 10 -262144
-1 -1;
#X obj 1325 947 bng 15 250 50 0 empty empty empty 17 7 0 10 -262144
-1 -1;
#X obj 1621 947 bng 15 250 50 0 empty empty empty 17 7 0 10 -262144
-1 -1;
#X obj 29 1598 bng 15 250 50 0 empty empty empty 17 7 0 10 -262144
-1 -1;
#X obj 335 1618 bng 15 250 50 0 empty empty empty 17 7 0 10 -262144
-1 -1;
#X obj 677 1625 bng 15 250 50 0 empty empty empty 17 7 0 10 -262144
-1 -1;
#X obj 959 1633 bng 15 250 50 0 empty empty empty 17 7 0 10 -262144
-1 -1;
#X obj 1196 1627 bng 15 250 50 0 empty empty empty 17 7 0 10 -262144
-1 -1;
#X floatatom 534 145 5 0 0 0 - - -, f 5;
#X obj 69 1113 bng 15 250 50 0 empty empty empty 17 7 0 10 -262144
-1 -1;
#X obj 27 1044 t b b b b b b b b b;
#X obj 26 1194 send toSystem;
#X obj 557 1079 bng 15 250 50 0 empty empty empty 17 7 0 10 -262144
-1 -1;
#X obj 530 1179 send toSystem;
#X obj 1066 1090 bng 15 250 50 0 empty empty empty 17 7 0 10 -262144
-1 -1;
#X obj 1028 1165 send toSystem;
#X obj 531 1029 t b b b b b b b b b b;
#X obj 1024 1021 t b b b b b b b b b b b;
#X obj 322 1104 bng 15 250 50 0 empty empty empty 17 7 0 10 -262144
-1 -1;
#X obj 279 1185 send toSystem;
#X obj 795 1065 bng 15 250 50 0 empty empty empty 17 7 0 10 -262144
-1 -1;
#X obj 768 1165 send toSystem;
#X obj 769 1015 t b b b b b b b b b b;
#X obj 280 1035 t b b b b b b b b b;
#X msg 11 1155 list /vibrate 30.58;
#X obj 164 1079 delay 61.15;
#X obj 159 1103 delay 122.3;
#X obj 156 1129 delay 183.45;
#X obj 160 1160 delay 244.6;
#X obj 159 1193 delay 305.75;
#X obj 155 1227 delay 366.6;
#X msg 269 1141 list /vibrate 28.86;
#X obj 413 1091 delay 57.72;
#X obj 411 1121 delay 115.44;
#X obj 413 1156 delay 173.16;
#X obj 417 1187 delay 230.88;
#X obj 420 1213 delay 288.6;
#X obj 420 1246 delay 346.32;
#X msg 520 1137 list /vibrate 27.24;
#X obj 663 1085 delay 54.48;
#X obj 661 1114 delay 108.96;
#X obj 661 1145 delay 163.44;
#X obj 663 1177 delay 217.92;
#X obj 671 1208 delay 272.4;
#X obj 673 1240 delay 326.88;
#X obj 552 1204 delay 381.36;
#X msg 766 1126 list /vibrate 25.71;
#X obj 903 1068 delay 51.43;
#X obj 905 1100 delay 102.86;
#X obj 906 1130 delay 154.29;
#X obj 914 1160 delay 205.72;
#X obj 913 1189 delay 257.15;
#X obj 915 1217 delay 308.58;
#X obj 807 1195 delay 360.01;
#X msg 1001 1130 list /vibrate 24.27;
#X obj 1153 1071 delay 48.54;
#X obj 1159 1101 delay 97.08;
#X obj 1157 1131 delay 145.62;
#X obj 1163 1162 delay 194.16;
#X obj 1170 1195 delay 242.7;
#X obj 1173 1228 delay 291.24;
#X obj 1044 1201 delay 339.78;
#X obj 1040 1231 delay 388.32;
#X obj 1348 1087 bng 15 250 50 0 empty empty empty 17 7 0 10 -262144
-1 -1;
#X obj 1305 1168 send toSystem;
#X obj 1306 1018 t b b b b b b b b b b b;
#X msg 1287 1132 list /vibrate 22.91;
#X obj 1427 1073 delay 45.81;
#X obj 1433 1104 delay 91.62;
#X obj 1434 1135 delay 137.43;
#X obj 1437 1168 delay 183.24;
#X obj 1449 1196 delay 229.05;
#X obj 1460 1224 delay 274.86;
#X obj 1460 1251 delay 320.67;
#X obj 1330 1204 delay 366.48;
#X obj 1626 1063 bng 15 250 50 0 empty empty empty 17 7 0 10 -262144
-1 -1;
#X obj 1583 1144 send toSystem;
#X obj 1600 1013 t b b b b b b b b b b b b;
#X msg 1562 1109 list /vibrate 21.62;
#X obj 1718 1051 delay 43.24;
#X obj 1711 1075 delay 86.48;
#X obj 1716 1108 delay 129.72;
#X obj 1717 1140 delay 172.96;
#X obj 1718 1169 delay 216.2;
#X obj 1720 1198 delay 259.44;
#X obj 1717 1229 delay 302.68;
#X obj 1594 1185 delay 345.92;
#X obj 1602 1217 delay 389.16;
#X obj 62 1779 bng 15 250 50 0 empty empty empty 17 7 0 10 -262144
-1 -1;
#X obj 19 1860 send toSystem;
#X obj 664 1780 bng 15 250 50 0 empty empty empty 17 7 0 10 -262144
-1 -1;
#X obj 621 1861 send toSystem;
#X obj 359 1786 bng 15 250 50 0 empty empty empty 17 7 0 10 -262144
-1 -1;
#X obj 316 1867 send toSystem;
#X obj 950 1804 bng 15 250 50 0 empty empty empty 17 7 0 10 -262144
-1 -1;
#X obj 947 1870 send toSystem;
#X obj 36 1729 t b b b b b b b b b b b b b;
#X obj 638 1730 t b b b b b b b b b b b b b b;
#X obj 944 1730 t b b b b b b b b b b b b b b b;
#X msg 6 1812 list /vibrate 20.41;
#X obj 154 1766 delay 40.82;
#X obj 153 1793 delay 81.64;
#X obj 150 1826 delay 122.46;
#X obj 153 1857 delay 163.28;
#X obj 155 1888 delay 204.1;
#X obj 156 1920 delay 244.92;
#X obj 150 1946 delay 285.74;
#X obj 155 1980 delay 326.56;
#X obj 33 1896 delay 367.38;
#X msg 307 1818 list /vibrate 19.26;
#X obj 453 1775 delay 38.53;
#X obj 454 1802 delay 77.06;
#X obj 459 1831 delay 115.59;
#X obj 462 1864 delay 154.12;
#X obj 463 1891 delay 192.65;
#X obj 457 1921 delay 231.18;
#X obj 458 1952 delay 269.71;
#X obj 343 1900 delay 308.24;
#X obj 342 1933 delay 346.77;
#X obj 339 1961 delay 385.3;
#X obj 333 1736 t b b b b b b b b b b b b b;
#X msg 590 1824 list /vibrate 18.18;
#X obj 750 1770 delay 36.36;
#X obj 749 1800 delay 72.72;
#X obj 755 1833 delay 109.08;
#X obj 755 1863 delay 145.44;
#X obj 761 1893 delay 181.8;
#X obj 761 1923 delay 218.16;
#X obj 762 1948 delay 254.52;
#X obj 766 1983 delay 290.88;
#X obj 636 1895 delay 327.24;
#X obj 645 1928 delay 363.6;
#X obj 646 1958 delay 399.96;
#X msg 930 1821 list /vibrate 17.16;
#X obj 1079 1776 delay 34.32;
#X obj 1083 1806 delay 68.64;
#X obj 1083 1842 delay 102.96;
#X obj 1085 1871 delay 137.28;
#X obj 1085 1898 delay 171.6;
#X obj 1088 1927 delay 205.92;
#X obj 1086 1961 delay 240.24;
#X obj 1089 1990 delay 274.56;
#X obj 1087 2019 delay 308.88;
#X obj 1094 2052 delay 343.2;
#X obj 978 1909 delay 377.52;
#X obj 1228 1826 bng 15 250 50 0 empty empty empty 17 7 0 10 -262144
-1 -1;
#X obj 1225 1892 send toSystem;
#X msg 1228 1858 list /vibrate 16.2;
#X obj 1362 1801 delay 32.4;
#X obj 1366 1832 delay 64.8;
#X obj 1376 1861 delay 97.2;
#X obj 1374 1891 delay 129.6;
#X obj 1374 1918 delay 162;
#X obj 1372 1950 delay 194.4;
#X obj 1372 1983 delay 226.8;
#X obj 1370 2015 delay 259.2;
#X obj 1371 2047 delay 291.6;
#X obj 1376 2076 delay 324;
#X obj 1261 1927 delay 356.4;
#X obj 1256 1961 delay 388.8;
#X obj 1242 1761 t b b b b b b b b b b b b b b b b;
#X obj 357 244 bng 15 250 50 0 empty empty empty 17 7 0 10 -262144
-1 -1;
#X obj 395 251 bng 15 250 50 0 empty empty empty 17 7 0 10 -262144
-1 -1;
#X obj 440 252 bng 15 250 50 0 empty empty empty 17 7 0 10 -262144
-1 -1;
#X obj 479 253 bng 15 250 50 0 empty empty empty 17 7 0 10 -262144
-1 -1;
#X obj 519 251 bng 15 250 50 0 empty empty empty 17 7 0 10 -262144
-1 -1;
#X obj 617 11 receive fromGUI;
#X obj 617 41 list trim;
#X obj 620 79 route /mySlider;
#X floatatom 617 101 5 0 0 0 - - -, f 5;
#X obj 631 123 + 1;
#X floatatom 314 331 5 0 0 0 - - -, f 5;
#X obj 535 174 sel 80 85 90 95 100;
#X obj 433 113 bng 15 250 50 0 empty empty empty 17 7 0 10 -262144
-1 -1;
#X floatatom 200 225 5 0 0 0 - - -, f 5;
#X obj 357 244 bng 15 250 50 0 empty empty empty 17 7 0 10 -262144
-1 -1;
#X obj 388 70 threshold~ 50 5;
#X obj 653 145 * 5;
#X obj 595 148 + 75;
#X obj 128 885 delay 398;
#X obj 374 878 delay 375;
#X obj 575 856 delay 408;
#X obj 850 856 delay 386;
#X obj 1097 860 delay 400;
#X obj 1401 863 delay 390;
#X obj 1705 859 delay 410;
#X obj 100 1539 delay 388;
#X obj 416 1551 delay 404;
#X obj 767 1558 delay 418;
#X obj 1039 1562 delay 394;
#X obj 1283 1559 delay 404;
#X msg 41 363 growth 60;
#X msg 56 248 maxfreq 8000;
#X msg 213 373 npeak 13;
#X msg 263 436 stabletime 0;
#X obj 20 482 sigmund~ -hop 1024 -npts 2048 env notes pitch;
#X msg 352 279 80;
#X msg 396 294 83;
#X msg 441 295 86;
#X msg 480 296 89;
#X msg 520 294 92;
#X obj 1949 32 receive fromGUI;
#X obj 1952 63 list trim;
#X obj 1955 101 route /mySlider;
#X floatatom 1946 165 5 0 0 0 - - -, f 5;
#X floatatom 1948 122 5 0 0 0 - - -, f 5;
#X obj 1946 193 * 2;
#X floatatom 1944 228 5 0 0 0 - - -, f 5;
#X obj 1932 256 expr 1000/($f1/60);
#X floatatom 1932 284 5 0 0 0 - - -, f 5;
#X obj 1873 328 metro;
#X obj 1778 191 receive fromGUI;
#X obj 1778 221 list trim;
#X obj 1781 259 route /mytoogle;
#X obj 1811 299 tgl 15 0 empty empty empty 17 7 0 10 -262144 -1 -1
0 1;
#X obj 1870 367 tgl 15 0 empty empty empty 17 7 0 10 -262144 -1 -1
0 1;
#X obj 2119 347 tabplay~ metro;
#X obj 1946 141 + 50;
#X obj 2483 688 dac~;
#X obj 1796 405 receive fromGUI;
#X obj 1796 435 list trim;
#X floatatom 1943 481 5 0 0 0 - - -, f 5;
#X obj 1799 473 route /volmetro;
#X floatatom 2385 36 5 0 0 0 - - -, f 5;
#X obj 2390 108 bng 15 250 50 0 empty empty empty 17 7 0 10 -262144
-1 -1;
#X obj 2381 67 select 1;
#X obj 2311 172 f;
#X obj 2363 173 + 1;
#X floatatom 2305 234 5 0 0 0 - - -, f 5;
#X obj 2257 62 bng 15 250 50 0 empty empty empty 17 7 0 10 -262144
-1 -1;
#X obj 2233 23 select 0;
#X obj 2362 214 mod;
#X msg 2490 99 2;
#X msg 2489 130 3;
#X msg 2488 167 4;
#X msg 2491 66 1;
#X obj 2302 253 select 0 1 2 3;
#X obj 2121 309 bng 15 250 50 0 empty empty empty 17 7 0 10 -262144
-1 -1;
#X obj 2334 309 bng 15 250 50 0 empty empty empty 17 7 0 10 -262144
-1 -1;
#X obj 2540 330 bng 15 250 50 0 empty empty empty 17 7 0 10 -262144
-1 -1;
#X obj 3084 321 bng 15 250 50 0 empty empty empty 17 7 0 10 -262144
-1 -1;
#X msg 2234 91 -1;
#X obj 2342 349 tabplay~ metro;
#X obj 2614 343 tabplay~ metro;
#X obj 3113 338 tabplay~ metro;
#X obj 2553 54 bng 15 250 50 0 empty empty empty 17 7 0 10 -262144
-1 -1;
#X obj 2553 91 bng 15 250 50 0 empty empty empty 17 7 0 10 -262144
-1 -1;
#X obj 2558 121 bng 15 250 50 0 empty empty empty 17 7 0 10 -262144
-1 -1;
#X obj 2556 156 bng 15 250 50 0 empty empty empty 17 7 0 10 -262144
-1 -1;
#X obj 2049 1141 send toGUI;
#X obj 2082 945 delay;
#X floatatom 1775 603 5 0 0 0 - - -, f 5;
#X obj 1837 737 delay;
#X obj 1805 559 expr (1.714*$f1)/4.2;
#X floatatom 2651 153 5 0 0 0 - - -, f 5;
#X obj 2734 21 receive fromGUI;
#X obj 2734 51 list trim;
#X floatatom 2734 111 5 0 0 0 - - -, f 5;
#X obj 2748 133 + 1;
#X obj 2619 53 sel 1 2 3 4;
#X obj 2738 85 route /compasso;
#X obj 2296 948 delay;
#X obj 2471 942 delay;
#X obj 2853 946 delay;
#X msg 2073 1068 1;
#X msg 2105 1068 0;
#X obj 2085 1093 tgl 15 0 empty empty empty 17 7 0 10 -262144 -1 -1
0 1;
#X obj 2264 1136 send toGUI;
#X msg 2288 1063 1;
#X msg 2320 1063 0;
#X obj 2300 1088 tgl 15 0 empty empty empty 17 7 0 10 -262144 -1 -1
0 1;
#X obj 2448 1113 send toGUI;
#X msg 2472 1040 1;
#X msg 2504 1040 0;
#X obj 2484 1065 tgl 15 0 empty empty empty 17 7 0 10 -262144 -1 -1
0 1;
#X obj 2813 1125 send toGUI;
#X msg 2837 1052 1;
#X msg 2869 1052 0;
#X obj 2849 1077 tgl 15 0 empty empty empty 17 7 0 10 -262144 -1 -1
0 1;
#X msg 2059 1115 list /button1 \$1;
#X msg 2274 1110 list /button2 \$1;
#X msg 2458 1087 list /button33 \$1;
#X msg 2823 1099 list /button4 \$1;
#X obj 2550 248 sel 1 2 3 4;
#X obj 2054 513 * 0.1;
#X obj 2097 565 *~ 1;
#X obj 2279 567 *~ 0.4;
#X obj 2638 931 delay;
#X obj 2614 1112 send toGUI;
#X msg 2638 1039 1;
#X msg 2670 1039 0;
#X obj 2650 1064 tgl 15 0 empty empty empty 17 7 0 10 -262144 -1 -1
0 1;
#X msg 2624 1086 list /button34 \$1;
#X obj 2482 806 expr $f1 + $f2;
#X floatatom 2468 786 5 0 0 0 - - -, f 5;
#X floatatom 2563 781 5 0 0 0 - - -, f 5;
#X msg 2560 753 3;
#X msg 2612 749 4, f 2;
#X floatatom 2612 780 5 0 0 0 - - -, f 5;
#X obj 2562 839 sel 5 6;
#X msg 2466 760 2;
#X obj 2822 331 bng 15 250 50 0 empty empty empty 17 7 0 10 -262144
-1 -1;
#X obj 2856 348 tabplay~ metro;
#X obj 2758 567 *~ 0.8;
#X obj 2491 575 *~ 0.3;
#X obj 2287 522 * 0.04;
#X obj 2465 527 * 0.03;
#X obj 2714 527 * 0.08;
#X floatatom 2135 538 5 0 0 0 - - -, f 5;
#X obj 3129 553 *~ 0.3;
#X obj 3040 507 * 0.03;
#X obj 1798 344 sel 1;
#X obj 1817 671 expr (1*$f1)/2;
#X obj 2577 1390 receive fromGUI;
#X obj 2577 1420 list trim;
#X obj 2580 1458 route /flash;
#X obj 2057 1314 send toGUI;
#X obj 2272 1309 send toGUI;
#X obj 2456 1286 send toGUI;
#X obj 2821 1298 send toGUI;
#X obj 2622 1285 send toGUI;
#X msg 2039 1262 list /button1fs \$1;
#X msg 2282 1283 list /button2fs \$1;
#X msg 2466 1260 list /button33fs \$1;
#X msg 2632 1259 list /button34fs \$1;
#X msg 2831 1272 list /button4fs \$1;
#X obj 2434 1637 send toSystem;
#X msg 2444 1612 list /flash \$1;
#X msg 2001 362;
#X obj 2416 1552 expr $f1*$f2;
#X obj 2573 1512 tgl 15 0 empty empty empty 17 7 0 10 -262144 -1 -1
0 1;
#X obj 2422 1582 tgl 15 0 empty empty empty 17 7 0 10 -262144 -1 -1
0 1;
#X connect 0 0 81 0;
#X connect 0 0 282 0;
#X connect 1 0 79 0;
#X connect 2 0 76 0;
#X connect 3 0 5 0;
#X connect 3 0 83 0;
#X connect 4 0 5 0;
#X connect 5 0 56 0;
#X connect 6 0 8 0;
#X connect 6 0 84 0;
#X connect 7 0 8 0;
#X connect 8 0 57 0;
#X connect 11 0 12 0;
#X connect 11 1 268 0;
#X connect 12 0 14 0;
#X connect 12 0 85 0;
#X connect 13 0 14 0;
#X connect 14 0 58 0;
#X connect 16 0 17 0;
#X connect 16 1 277 0;
#X connect 17 0 19 0;
#X connect 17 0 94 0;
#X connect 18 0 19 0;
#X connect 19 0 72 0;
#X connect 21 0 22 0;
#X connect 21 1 269 0;
#X connect 22 0 24 0;
#X connect 22 0 86 0;
#X connect 23 0 24 0;
#X connect 24 0 59 0;
#X connect 26 0 27 0;
#X connect 26 1 270 0;
#X connect 27 0 29 0;
#X connect 27 0 87 0;
#X connect 28 0 29 0;
#X connect 29 0 60 0;
#X connect 31 0 32 0;
#X connect 31 1 271 0;
#X connect 32 0 34 0;
#X connect 32 0 88 0;
#X connect 33 0 34 0;
#X connect 34 0 61 0;
#X connect 36 0 37 0;
#X connect 36 1 272 0;
#X connect 37 0 39 0;
#X connect 37 0 89 0;
#X connect 38 0 39 0;
#X connect 39 0 62 0;
#X connect 41 0 42 0;
#X connect 41 1 273 0;
#X connect 42 0 44 0;
#X connect 42 0 90 0;
#X connect 43 0 44 0;
#X connect 44 0 63 0;
#X connect 46 0 47 0;
#X connect 46 1 274 0;
#X connect 47 0 49 0;
#X connect 47 0 91 0;
#X connect 48 0 49 0;
#X connect 49 0 64 0;
#X connect 51 0 52 0;
#X connect 51 1 275 0;
#X connect 52 0 54 0;
#X connect 52 0 92 0;
#X connect 53 0 54 0;
#X connect 54 0 70 0;
#X connect 56 0 9 0;
#X connect 57 0 10 0;
#X connect 58 0 15 0;
#X connect 59 0 25 0;
#X connect 60 0 30 0;
#X connect 61 0 35 0;
#X connect 62 0 40 0;
#X connect 63 0 45 0;
#X connect 64 0 50 0;
#X connect 65 0 66 0;
#X connect 65 1 276 0;
#X connect 66 0 68 0;
#X connect 66 0 93 0;
#X connect 67 0 68 0;
#X connect 68 0 71 0;
#X connect 70 0 55 0;
#X connect 71 0 69 0;
#X connect 72 0 20 0;
#X connect 73 0 2 0;
#X connect 74 0 3 0;
#X connect 74 1 266 0;
#X connect 75 0 6 0;
#X connect 75 1 267 0;
#X connect 76 0 74 0;
#X connect 76 1 75 0;
#X connect 76 2 11 0;
#X connect 76 3 21 0;
#X connect 76 4 26 0;
#X connect 76 5 31 0;
#X connect 76 6 36 0;
#X connect 76 7 41 0;
#X connect 76 8 46 0;
#X connect 76 9 51 0;
#X connect 76 10 65 0;
#X connect 76 11 16 0;
#X connect 78 0 73 0;
#X connect 79 0 78 0;
#X connect 80 0 282 0;
#X connect 81 0 82 0;
#X connect 81 0 261 0;
#X connect 81 0 278 0;
#X connect 81 0 279 0;
#X connect 82 0 280 0;
#X connect 82 0 281 0;
#X connect 83 0 97 0;
#X connect 84 0 110 0;
#X connect 85 0 103 0;
#X connect 86 0 109 0;
#X connect 87 0 104 0;
#X connect 88 0 152 0;
#X connect 89 0 164 0;
#X connect 90 0 183 0;
#X connect 91 0 207 0;
#X connect 92 0 184 0;
#X connect 93 0 185 0;
#X connect 94 0 247 0;
#X connect 95 0 259 0;
#X connect 96 0 111 0;
#X connect 97 0 96 0;
#X connect 97 1 112 0;
#X connect 97 2 114 0;
#X connect 97 3 115 0;
#X connect 97 4 116 0;
#X connect 97 5 113 0;
#X connect 97 6 117 0;
#X connect 99 0 125 0;
#X connect 101 0 141 0;
#X connect 103 0 99 0;
#X connect 103 1 126 0;
#X connect 103 2 127 0;
#X connect 103 3 128 0;
#X connect 103 4 129 0;
#X connect 103 5 130 0;
#X connect 103 6 131 0;
#X connect 103 7 132 0;
#X connect 104 0 101 0;
#X connect 104 1 142 0;
#X connect 104 2 143 0;
#X connect 104 3 144 0;
#X connect 104 4 145 0;
#X connect 104 5 146 0;
#X connect 104 6 147 0;
#X connect 104 7 148 0;
#X connect 104 8 149 0;
#X connect 105 0 118 0;
#X connect 107 0 133 0;
#X connect 109 0 107 0;
#X connect 109 1 134 0;
#X connect 109 2 135 0;
#X connect 109 3 136 0;
#X connect 109 4 137 0;
#X connect 109 5 138 0;
#X connect 109 6 139 0;
#X connect 109 7 140 0;
#X connect 110 0 105 0;
#X connect 110 1 119 0;
#X connect 110 2 120 0;
#X connect 110 3 121 0;
#X connect 110 4 122 0;
#X connect 110 5 123 0;
#X connect 110 6 124 0;
#X connect 111 0 98 0;
#X connect 112 0 96 0;
#X connect 113 0 96 0;
#X connect 114 0 96 0;
#X connect 115 0 96 0;
#X connect 116 0 96 0;
#X connect 117 0 96 0;
#X connect 118 0 106 0;
#X connect 119 0 105 0;
#X connect 120 0 105 0;
#X connect 121 0 105 0;
#X connect 122 0 105 0;
#X connect 123 0 105 0;
#X connect 124 0 105 0;
#X connect 125 0 100 0;
#X connect 126 0 99 0;
#X connect 127 0 99 0;
#X connect 128 0 99 0;
#X connect 129 0 99 0;
#X connect 130 0 99 0;
#X connect 131 0 99 0;
#X connect 132 0 99 0;
#X connect 133 0 108 0;
#X connect 134 0 107 0;
#X connect 135 0 107 0;
#X connect 136 0 107 0;
#X connect 137 0 107 0;
#X connect 138 0 107 0;
#X connect 139 0 107 0;
#X connect 140 0 107 0;
#X connect 141 0 102 0;
#X connect 142 0 101 0;
#X connect 143 0 101 0;
#X connect 144 0 101 0;
#X connect 145 0 101 0;
#X connect 146 0 101 0;
#X connect 147 0 101 0;
#X connect 148 0 101 0;
#X connect 149 0 101 0;
#X connect 150 0 153 0;
#X connect 152 0 150 0;
#X connect 152 1 154 0;
#X connect 152 2 155 0;
#X connect 152 3 156 0;
#X connect 152 4 157 0;
#X connect 152 5 158 0;
#X connect 152 6 159 0;
#X connect 152 7 160 0;
#X connect 152 8 161 0;
#X connect 153 0 151 0;
#X connect 154 0 150 0;
#X connect 155 0 150 0;
#X connect 156 0 150 0;
#X connect 157 0 150 0;
#X connect 158 0 150 0;
#X connect 159 0 150 0;
#X connect 160 0 150 0;
#X connect 161 0 150 0;
#X connect 162 0 165 0;
#X connect 164 0 162 0;
#X connect 164 1 166 0;
#X connect 164 2 167 0;
#X connect 164 3 168 0;
#X connect 164 4 169 0;
#X connect 164 5 170 0;
#X connect 164 6 171 0;
#X connect 164 7 172 0;
#X connect 164 8 173 0;
#X connect 164 9 174 0;
#X connect 165 0 163 0;
#X connect 166 0 162 0;
#X connect 167 0 162 0;
#X connect 168 0 162 0;
#X connect 169 0 162 0;
#X connect 170 0 162 0;
#X connect 171 0 162 0;
#X connect 172 0 162 0;
#X connect 173 0 162 0;
#X connect 174 0 162 0;
#X connect 175 0 186 0;
#X connect 177 0 208 0;
#X connect 179 0 196 0;
#X connect 181 0 220 0;
#X connect 183 0 175 0;
#X connect 183 1 187 0;
#X connect 183 2 188 0;
#X connect 183 3 189 0;
#X connect 183 4 190 0;
#X connect 183 5 191 0;
#X connect 183 6 195 0;
#X connect 183 7 192 0;
#X connect 183 8 193 0;
#X connect 183 9 194 0;
#X connect 184 0 177 0;
#X connect 184 1 209 0;
#X connect 184 2 210 0;
#X connect 184 3 211 0;
#X connect 184 4 212 0;
#X connect 184 5 213 0;
#X connect 184 6 214 0;
#X connect 184 7 215 0;
#X connect 184 8 216 0;
#X connect 184 9 217 0;
#X connect 184 10 218 0;
#X connect 184 11 219 0;
#X connect 185 0 181 0;
#X connect 185 1 221 0;
#X connect 185 2 222 0;
#X connect 185 3 223 0;
#X connect 185 4 224 0;
#X connect 185 5 225 0;
#X connect 185 6 226 0;
#X connect 185 7 227 0;
#X connect 185 8 228 0;
#X connect 185 9 229 0;
#X connect 185 10 230 0;
#X connect 185 11 231 0;
#X connect 186 0 176 0;
#X connect 187 0 175 0;
#X connect 188 0 175 0;
#X connect 189 0 175 0;
#X connect 190 0 175 0;
#X connect 191 0 175 0;
#X connect 192 0 175 0;
#X connect 193 0 175 0;
#X connect 194 0 175 0;
#X connect 195 0 175 0;
#X connect 196 0 180 0;
#X connect 197 0 179 0;
#X connect 198 0 179 0;
#X connect 199 0 179 0;
#X connect 200 0 179 0;
#X connect 201 0 179 0;
#X connect 202 0 179 0;
#X connect 203 0 179 0;
#X connect 204 0 179 0;
#X connect 205 0 179 0;
#X connect 206 0 179 0;
#X connect 207 0 179 0;
#X connect 207 1 197 0;
#X connect 207 2 198 0;
#X connect 207 3 199 0;
#X connect 207 4 200 0;
#X connect 207 5 201 0;
#X connect 207 6 204 0;
#X connect 207 7 202 0;
#X connect 207 8 203 0;
#X connect 207 9 205 0;
#X connect 207 10 206 0;
#X connect 208 0 178 0;
#X connect 209 0 177 0;
#X connect 210 0 177 0;
#X connect 211 0 177 0;
#X connect 212 0 177 0;
#X connect 213 0 177 0;
#X connect 214 0 177 0;
#X connect 215 0 177 0;
#X connect 216 0 177 0;
#X connect 217 0 177 0;
#X connect 218 0 177 0;
#X connect 219 0 177 0;
#X connect 220 0 182 0;
#X connect 221 0 181 0;
#X connect 222 0 181 0;
#X connect 223 0 181 0;
#X connect 224 0 181 0;
#X connect 225 0 181 0;
#X connect 226 0 181 0;
#X connect 227 0 181 0;
#X connect 228 0 181 0;
#X connect 229 0 181 0;
#X connect 230 0 181 0;
#X connect 231 0 181 0;
#X connect 232 0 234 0;
#X connect 234 0 233 0;
#X connect 235 0 232 0;
#X connect 236 0 232 0;
#X connect 237 0 232 0;
#X connect 238 0 232 0;
#X connect 239 0 232 0;
#X connect 240 0 232 0;
#X connect 241 0 232 0;
#X connect 242 0 232 0;
#X connect 243 0 232 0;
#X connect 244 0 232 0;
#X connect 245 0 232 0;
#X connect 246 0 232 0;
#X connect 247 0 232 0;
#X connect 247 1 235 0;
#X connect 247 2 236 0;
#X connect 247 3 237 0;
#X connect 247 4 238 0;
#X connect 247 5 239 0;
#X connect 247 6 240 0;
#X connect 247 7 241 0;
#X connect 247 8 242 0;
#X connect 247 9 243 0;
#X connect 247 10 244 0;
#X connect 247 11 245 0;
#X connect 247 12 246 0;
#X connect 248 0 283 0;
#X connect 249 0 284 0;
#X connect 250 0 285 0;
#X connect 251 0 286 0;
#X connect 252 0 287 0;
#X connect 253 0 254 0;
#X connect 254 0 255 0;
#X connect 255 0 256 0;
#X connect 256 0 257 0;
#X connect 257 0 264 0;
#X connect 258 0 80 0;
#X connect 259 0 248 0;
#X connect 259 1 249 0;
#X connect 259 2 250 0;
#X connect 259 3 251 0;
#X connect 259 4 252 0;
#X connect 260 0 248 0;
#X connect 261 0 263 0;
#X connect 263 0 260 0;
#X connect 264 0 265 0;
#X connect 265 0 95 0;
#X connect 266 0 4 0;
#X connect 267 0 7 0;
#X connect 268 0 13 0;
#X connect 269 0 23 0;
#X connect 270 0 28 0;
#X connect 271 0 33 0;
#X connect 272 0 38 0;
#X connect 273 0 43 0;
#X connect 274 0 48 0;
#X connect 275 0 53 0;
#X connect 276 0 67 0;
#X connect 277 0 18 0;
#X connect 278 0 282 0;
#X connect 279 0 282 0;
#X connect 280 0 282 0;
#X connect 281 0 282 0;
#X connect 282 0 77 0;
#X connect 282 1 1 0;
#X connect 283 0 258 0;
#X connect 284 0 258 0;
#X connect 285 0 258 0;
#X connect 286 0 258 0;
#X connect 287 0 258 0;
#X connect 288 0 289 0;
#X connect 289 0 290 0;
#X connect 290 0 292 0;
#X connect 291 0 293 0;
#X connect 292 0 304 0;
#X connect 293 0 294 0;
#X connect 294 0 295 0;
#X connect 295 0 296 0;
#X connect 296 0 297 1;
#X connect 296 0 340 0;
#X connect 296 0 399 0;
#X connect 297 0 302 0;
#X connect 298 0 299 0;
#X connect 299 0 300 0;
#X connect 300 0 301 0;
#X connect 301 0 297 0;
#X connect 301 0 317 0;
#X connect 301 0 398 0;
#X connect 301 0 415 0;
#X connect 302 0 310 0;
#X connect 303 0 372 0;
#X connect 304 0 291 0;
#X connect 306 0 307 0;
#X connect 307 0 309 0;
#X connect 308 0 371 0;
#X connect 308 0 392 0;
#X connect 308 0 393 0;
#X connect 308 0 394 0;
#X connect 308 0 397 0;
#X connect 309 0 308 0;
#X connect 310 0 312 0;
#X connect 311 0 313 0;
#X connect 312 0 311 0;
#X connect 313 0 314 0;
#X connect 313 0 315 0;
#X connect 314 0 318 0;
#X connect 315 0 323 0;
#X connect 316 0 328 0;
#X connect 317 0 316 0;
#X connect 318 0 313 1;
#X connect 319 0 318 1;
#X connect 320 0 318 1;
#X connect 321 0 318 1;
#X connect 322 0 318 1;
#X connect 323 0 324 0;
#X connect 323 1 325 0;
#X connect 323 2 387 0;
#X connect 323 3 327 0;
#X connect 324 0 303 0;
#X connect 324 0 337 0;
#X connect 325 0 329 0;
#X connect 325 0 348 0;
#X connect 326 0 330 0;
#X connect 327 0 331 0;
#X connect 327 0 350 0;
#X connect 328 0 313 0;
#X connect 329 0 373 0;
#X connect 330 0 391 0;
#X connect 331 0 396 0;
#X connect 332 0 322 0;
#X connect 333 0 319 0;
#X connect 334 0 320 0;
#X connect 335 0 321 0;
#X connect 337 0 351 0;
#X connect 337 0 339 0;
#X connect 339 0 352 0;
#X connect 339 0 356 0;
#X connect 339 0 360 0;
#X connect 339 0 364 0;
#X connect 339 0 377 0;
#X connect 340 0 337 1;
#X connect 340 0 338 0;
#X connect 340 0 348 1;
#X connect 340 0 349 1;
#X connect 340 0 350 1;
#X connect 340 0 374 1;
#X connect 341 0 346 0;
#X connect 341 0 370 0;
#X connect 342 0 343 0;
#X connect 343 0 347 0;
#X connect 344 0 345 0;
#X connect 345 0 341 0;
#X connect 346 0 332 0;
#X connect 346 1 333 0;
#X connect 346 2 334 0;
#X connect 346 3 335 0;
#X connect 347 0 344 0;
#X connect 348 0 355 0;
#X connect 348 0 339 0;
#X connect 349 0 359 0;
#X connect 349 0 339 0;
#X connect 350 0 363 0;
#X connect 350 0 339 0;
#X connect 351 0 353 0;
#X connect 352 0 353 0;
#X connect 353 0 366 0;
#X connect 353 0 408 0;
#X connect 353 0 416 0;
#X connect 355 0 357 0;
#X connect 356 0 357 0;
#X connect 357 0 367 0;
#X connect 357 0 409 0;
#X connect 357 0 416 0;
#X connect 359 0 361 0;
#X connect 360 0 361 0;
#X connect 361 0 368 0;
#X connect 361 0 410 0;
#X connect 361 0 416 0;
#X connect 363 0 365 0;
#X connect 364 0 365 0;
#X connect 365 0 369 0;
#X connect 365 0 412 0;
#X connect 365 0 416 0;
#X connect 366 0 336 0;
#X connect 367 0 354 0;
#X connect 368 0 358 0;
#X connect 369 0 362 0;
#X connect 370 2 383 0;
#X connect 370 3 384 0;
#X connect 371 0 372 1;
#X connect 371 0 395 0;
#X connect 372 0 305 0;
#X connect 372 0 305 1;
#X connect 373 0 305 0;
#X connect 373 0 305 1;
#X connect 374 0 376 0;
#X connect 374 0 339 0;
#X connect 376 0 378 0;
#X connect 377 0 378 0;
#X connect 378 0 379 0;
#X connect 378 0 411 0;
#X connect 378 0 416 0;
#X connect 379 0 375 0;
#X connect 380 0 386 0;
#X connect 381 0 380 0;
#X connect 382 0 380 1;
#X connect 383 0 382 0;
#X connect 384 0 385 0;
#X connect 385 0 380 1;
#X connect 386 0 349 0;
#X connect 386 0 326 0;
#X connect 386 1 374 0;
#X connect 386 1 388 0;
#X connect 387 0 381 0;
#X connect 388 0 389 0;
#X connect 389 0 390 0;
#X connect 390 0 305 0;
#X connect 390 0 305 1;
#X connect 391 0 305 0;
#X connect 391 0 305 1;
#X connect 392 0 373 1;
#X connect 393 0 391 1;
#X connect 394 0 390 1;
#X connect 396 0 305 0;
#X connect 396 0 305 1;
#X connect 397 0 396 1;
#X connect 398 0 292 0;
#X connect 399 0 339 1;
#X connect 400 0 401 0;
#X connect 401 0 402 0;
#X connect 402 0 417 0;
#X connect 408 0 403 0;
#X connect 409 0 404 0;
#X connect 410 0 405 0;
#X connect 411 0 407 0;
#X connect 412 0 406 0;
#X connect 414 0 413 0;
#X connect 416 0 418 0;
#X connect 417 0 416 1;
#X connect 418 0 414 0;
