#N canvas -8 -8 1366 725 10;
#X obj 187 25 receive fromGUI;
#X obj 190 56 list trim;
#X obj 193 94 route /mySlider;
#X floatatom 184 158 5 0 0 0 - - -, f 5;
#X floatatom 186 115 5 0 0 0 - - -, f 5;
#X obj 184 186 * 2;
#X floatatom 182 221 5 0 0 0 - - -, f 5;
#X obj 170 249 expr 1000/($f1/60);
#X floatatom 170 277 5 0 0 0 - - -, f 5;
#X obj 111 321 metro;
#X obj 16 184 receive fromGUI;
#X obj 16 214 list trim;
#X obj 19 252 route /mytoogle;
#X obj 49 292 tgl 15 0 empty empty empty 17 7 0 10 -262144 -1 -1 0
1;
#X obj 108 360 tgl 15 0 empty empty empty 17 7 0 10 -262144 -1 -1 0
1;
#X obj 378 374 loadbang;
#X obj 326 433 soundfiler;
#X obj 357 340 tabplay~ metro;
#X msg 296 407 read -resize metro.wav metro;
#X obj 408 435 table metro;
#X obj 184 134 + 50;
#X obj 721 681 dac~;
#X obj 34 398 receive fromGUI;
#X obj 34 428 list trim;
#X floatatom 181 474 5 0 0 0 - - -, f 5;
#X obj 37 466 route /volmetro;
#X floatatom 623 29 5 0 0 0 - - -, f 5;
#X obj 628 101 bng 15 250 50 0 empty empty empty 17 7 0 10 -262144
-1 -1;
#X obj 619 60 select 1;
#X obj 549 165 f;
#X obj 601 166 + 1;
#X floatatom 543 227 5 0 0 0 - - -, f 5;
#X obj 495 55 bng 15 250 50 0 empty empty empty 17 7 0 10 -262144 -1
-1;
#X obj 471 16 select 0;
#X obj 600 207 mod;
#X msg 728 92 2;
#X msg 727 123 3;
#X msg 726 160 4;
#X msg 729 59 1;
#X obj 540 246 select 0 1 2 3;
#X obj 359 302 bng 15 250 50 0 empty empty empty 17 7 0 10 -262144
-1 -1;
#X obj 572 302 bng 15 250 50 0 empty empty empty 17 7 0 10 -262144
-1 -1;
#X obj 778 323 bng 15 250 50 0 empty empty empty 17 7 0 10 -262144
-1 -1;
#X obj 1322 314 bng 15 250 50 0 empty empty empty 17 7 0 10 -262144
-1 -1;
#X msg 472 84 -1;
#X obj 601 376 loadbang;
#X obj 549 435 soundfiler;
#X obj 580 342 tabplay~ metro;
#X msg 519 409 read -resize metro.wav metro;
#X obj 631 437 table metro;
#X obj 873 370 loadbang;
#X obj 821 429 soundfiler;
#X obj 852 336 tabplay~ metro;
#X msg 791 403 read -resize metro.wav metro;
#X obj 903 431 table metro;
#X obj 1372 365 loadbang;
#X obj 1320 424 soundfiler;
#X obj 1351 331 tabplay~ metro;
#X msg 1290 398 read -resize metro.wav metro;
#X obj 1402 426 table metro;
#X obj 305 1002 send toSystem;
#X obj 525 1004 send toSystem;
#X obj 791 47 bng 15 250 50 0 empty empty empty 17 7 0 10 -262144 -1
-1;
#X obj 791 84 bng 15 250 50 0 empty empty empty 17 7 0 10 -262144 -1
-1;
#X obj 796 114 bng 15 250 50 0 empty empty empty 17 7 0 10 -262144
-1 -1;
#X obj 794 149 bng 15 250 50 0 empty empty empty 17 7 0 10 -262144
-1 -1;
#X obj 287 1134 send toGUI;
#X obj 320 938 delay;
#X floatatom 13 596 5 0 0 0 - - -, f 5;
#X obj 75 730 delay;
#X obj 43 552 expr (1.714*$f1)/4.2;
#X floatatom 889 146 5 0 0 0 - - -, f 5;
#X obj 972 14 receive fromGUI;
#X obj 972 44 list trim;
#X floatatom 972 104 5 0 0 0 - - -, f 5;
#X obj 986 126 + 1;
#X obj 857 46 sel 1 2 3 4;
#X obj 976 78 route /compasso;
#X obj 709 997 send toSystem;
#X obj 1090 1002 send toSystem;
#X obj 534 941 delay;
#X obj 709 935 delay;
#X obj 1091 939 delay;
#X msg 300 979 list /vibrate 80;
#X msg 527 969 list /vibrate 30;
#X msg 311 1061 1;
#X msg 343 1061 0;
#X obj 323 1086 tgl 15 0 empty empty empty 17 7 0 10 -262144 -1 -1
0 1;
#X obj 502 1129 send toGUI;
#X msg 526 1056 1;
#X msg 558 1056 0;
#X obj 538 1081 tgl 15 0 empty empty empty 17 7 0 10 -262144 -1 -1
0 1;
#X obj 686 1106 send toGUI;
#X msg 710 1033 1;
#X msg 742 1033 0;
#X obj 722 1058 tgl 15 0 empty empty empty 17 7 0 10 -262144 -1 -1
0 1;
#X obj 1051 1118 send toGUI;
#X msg 1075 1045 1;
#X msg 1107 1045 0;
#X obj 1087 1070 tgl 15 0 empty empty empty 17 7 0 10 -262144 -1 -1
0 1;
#X msg 297 1108 list /button1 \$1;
#X msg 512 1103 list /button2 \$1;
#X msg 696 1080 list /button33 \$1;
#X msg 1061 1092 list /button4 \$1;
#X obj 788 241 sel 1 2 3 4;
#X obj 292 506 * 0.1;
#X obj 335 558 *~ 1;
#X obj 517 560 *~ 0.4;
#X obj 875 996 send toSystem;
#X obj 876 924 delay;
#X obj 852 1105 send toGUI;
#X msg 876 1032 1;
#X msg 908 1032 0;
#X obj 888 1057 tgl 15 0 empty empty empty 17 7 0 10 -262144 -1 -1
0 1;
#X msg 862 1079 list /button34 \$1;
#X obj 720 799 expr $f1 + $f2;
#X floatatom 706 779 5 0 0 0 - - -, f 5;
#X floatatom 801 774 5 0 0 0 - - -, f 5;
#X msg 798 746 3;
#X msg 850 742 4, f 2;
#X floatatom 850 773 5 0 0 0 - - -, f 5;
#X obj 800 832 sel 5 6;
#X msg 704 753 2;
#X msg 877 961 list /vibrate 60;
#X obj 1060 324 bng 15 250 50 0 empty empty empty 17 7 0 10 -262144
-1 -1;
#X obj 1115 375 loadbang;
#X obj 1063 434 soundfiler;
#X obj 1094 341 tabplay~ metro;
#X msg 1033 408 read -resize metro.wav metro;
#X obj 1145 436 table metro;
#X obj 996 560 *~ 0.8;
#X obj 729 568 *~ 0.3;
#X obj 525 515 * 0.04;
#X obj 703 520 * 0.03;
#X obj 952 520 * 0.08;
#X floatatom 373 531 5 0 0 0 - - -, f 5;
#X obj 1367 546 *~ 0.3;
#X obj 1278 500 * 0.03;
#X msg 711 962 list /vibrate 20;
#X msg 1092 967 list /vibrate 20;
#X obj 36 337 sel 1;
#X obj 55 664 expr (1*$f1)/2;
#X obj 815 1383 receive fromGUI;
#X obj 815 1413 list trim;
#X obj 818 1451 route /flash;
#X obj 295 1307 send toGUI;
#X obj 510 1302 send toGUI;
#X obj 694 1279 send toGUI;
#X obj 1059 1291 send toGUI;
#X obj 860 1278 send toGUI;
#X msg 277 1255 list /button1fs \$1;
#X msg 520 1276 list /button2fs \$1;
#X msg 704 1253 list /button33fs \$1;
#X msg 870 1252 list /button34fs \$1;
#X msg 1069 1265 list /button4fs \$1;
#X obj 672 1630 send toSystem;
#X msg 682 1605 list /flash \$1;
#X msg 239 355;
#X obj 654 1545 expr $f1*$f2;
#X obj 811 1505 tgl 15 0 empty empty empty 17 7 0 10 -262144 -1 -1
1 1;
#X obj 660 1575 tgl 15 0 empty empty empty 17 7 0 10 -262144 -1 -1
0 1;
#X connect 0 0 1 0;
#X connect 1 0 2 0;
#X connect 2 0 4 0;
#X connect 3 0 5 0;
#X connect 4 0 20 0;
#X connect 5 0 6 0;
#X connect 6 0 7 0;
#X connect 7 0 8 0;
#X connect 8 0 9 1;
#X connect 8 0 70 0;
#X connect 8 0 141 0;
#X connect 9 0 14 0;
#X connect 10 0 11 0;
#X connect 11 0 12 0;
#X connect 12 0 13 0;
#X connect 13 0 9 0;
#X connect 13 0 33 0;
#X connect 13 0 140 0;
#X connect 13 0 157 0;
#X connect 14 0 26 0;
#X connect 15 0 18 0;
#X connect 17 0 106 0;
#X connect 18 0 16 0;
#X connect 20 0 3 0;
#X connect 22 0 23 0;
#X connect 23 0 25 0;
#X connect 24 0 105 0;
#X connect 24 0 132 0;
#X connect 24 0 133 0;
#X connect 24 0 134 0;
#X connect 24 0 137 0;
#X connect 25 0 24 0;
#X connect 26 0 28 0;
#X connect 27 0 29 0;
#X connect 28 0 27 0;
#X connect 29 0 30 0;
#X connect 29 0 31 0;
#X connect 30 0 34 0;
#X connect 31 0 39 0;
#X connect 32 0 44 0;
#X connect 33 0 32 0;
#X connect 34 0 29 1;
#X connect 35 0 34 1;
#X connect 36 0 34 1;
#X connect 37 0 34 1;
#X connect 38 0 34 1;
#X connect 39 0 40 0;
#X connect 39 1 41 0;
#X connect 39 2 122 0;
#X connect 39 3 43 0;
#X connect 40 0 17 0;
#X connect 40 0 67 0;
#X connect 41 0 47 0;
#X connect 41 0 80 0;
#X connect 42 0 52 0;
#X connect 43 0 57 0;
#X connect 43 0 82 0;
#X connect 44 0 29 0;
#X connect 45 0 48 0;
#X connect 47 0 107 0;
#X connect 48 0 46 0;
#X connect 50 0 53 0;
#X connect 52 0 131 0;
#X connect 53 0 51 0;
#X connect 55 0 58 0;
#X connect 57 0 136 0;
#X connect 58 0 56 0;
#X connect 62 0 38 0;
#X connect 63 0 35 0;
#X connect 64 0 36 0;
#X connect 65 0 37 0;
#X connect 67 0 83 0;
#X connect 67 0 85 0;
#X connect 67 0 69 0;
#X connect 69 0 86 0;
#X connect 69 0 90 0;
#X connect 69 0 94 0;
#X connect 69 0 98 0;
#X connect 69 0 112 0;
#X connect 70 0 67 1;
#X connect 70 0 68 0;
#X connect 70 0 80 1;
#X connect 70 0 81 1;
#X connect 70 0 82 1;
#X connect 70 0 109 1;
#X connect 71 0 76 0;
#X connect 71 0 104 0;
#X connect 72 0 73 0;
#X connect 73 0 77 0;
#X connect 74 0 75 0;
#X connect 75 0 71 0;
#X connect 76 0 62 0;
#X connect 76 1 63 0;
#X connect 76 2 64 0;
#X connect 76 3 65 0;
#X connect 77 0 74 0;
#X connect 80 0 84 0;
#X connect 80 0 89 0;
#X connect 80 0 69 0;
#X connect 81 0 138 0;
#X connect 81 0 93 0;
#X connect 81 0 69 0;
#X connect 82 0 139 0;
#X connect 82 0 97 0;
#X connect 82 0 69 0;
#X connect 83 0 60 0;
#X connect 84 0 61 0;
#X connect 85 0 87 0;
#X connect 86 0 87 0;
#X connect 87 0 100 0;
#X connect 87 0 150 0;
#X connect 87 0 158 0;
#X connect 89 0 91 0;
#X connect 90 0 91 0;
#X connect 91 0 101 0;
#X connect 91 0 151 0;
#X connect 91 0 158 0;
#X connect 93 0 95 0;
#X connect 94 0 95 0;
#X connect 95 0 102 0;
#X connect 95 0 152 0;
#X connect 95 0 158 0;
#X connect 97 0 99 0;
#X connect 98 0 99 0;
#X connect 99 0 103 0;
#X connect 99 0 154 0;
#X connect 99 0 158 0;
#X connect 100 0 66 0;
#X connect 101 0 88 0;
#X connect 102 0 92 0;
#X connect 103 0 96 0;
#X connect 104 2 118 0;
#X connect 104 3 119 0;
#X connect 105 0 106 1;
#X connect 105 0 135 0;
#X connect 106 0 21 0;
#X connect 106 0 21 1;
#X connect 107 0 21 0;
#X connect 107 0 21 1;
#X connect 109 0 123 0;
#X connect 109 0 111 0;
#X connect 109 0 69 0;
#X connect 111 0 113 0;
#X connect 112 0 113 0;
#X connect 113 0 114 0;
#X connect 113 0 153 0;
#X connect 113 0 158 0;
#X connect 114 0 110 0;
#X connect 115 0 121 0;
#X connect 116 0 115 0;
#X connect 117 0 115 1;
#X connect 118 0 117 0;
#X connect 119 0 120 0;
#X connect 120 0 115 1;
#X connect 121 0 81 0;
#X connect 121 0 42 0;
#X connect 121 1 109 0;
#X connect 121 1 124 0;
#X connect 122 0 116 0;
#X connect 123 0 108 0;
#X connect 124 0 127 0;
#X connect 125 0 128 0;
#X connect 127 0 130 0;
#X connect 128 0 126 0;
#X connect 130 0 21 0;
#X connect 130 0 21 1;
#X connect 131 0 21 0;
#X connect 131 0 21 1;
#X connect 132 0 107 1;
#X connect 133 0 131 1;
#X connect 134 0 130 1;
#X connect 136 0 21 0;
#X connect 136 0 21 1;
#X connect 137 0 136 1;
#X connect 138 0 78 0;
#X connect 139 0 79 0;
#X connect 140 0 4 0;
#X connect 141 0 69 1;
#X connect 142 0 143 0;
#X connect 143 0 144 0;
#X connect 144 0 159 0;
#X connect 150 0 145 0;
#X connect 151 0 146 0;
#X connect 152 0 147 0;
#X connect 153 0 149 0;
#X connect 154 0 148 0;
#X connect 156 0 155 0;
#X connect 158 0 160 0;
#X connect 159 0 158 1;
#X connect 160 0 156 0;
