#N canvas -8 -8 1366 725 10;
#X obj 108 82 route list;
#X obj -105 192 select 1;
#X msg -106 218 bang;
#X obj -40 289 loadbang;
#X obj -113 348 soundfiler;
#X obj -105 244 tabplay~ C;
#X obj -27 349 table C;
#X obj 171 182 select 1;
#X msg 171 212 bang;
#X obj 236 279 loadbang;
#X obj 163 338 soundfiler;
#X obj 171 234 tabplay~ Db;
#X obj 249 339 table Db;
#X obj 392 185 select 1;
#X msg 392 215 bang;
#X obj 457 282 loadbang;
#X obj 384 341 soundfiler;
#X obj 392 237 tabplay~ D;
#X obj 572 185 select 1;
#X msg 572 215 bang;
#X obj 637 282 loadbang;
#X obj 564 341 soundfiler;
#X obj 862 195 select 1;
#X msg 862 225 bang;
#X obj 927 292 loadbang;
#X obj 854 351 soundfiler;
#X obj 1118 189 select 1;
#X msg 1118 219 bang;
#X obj 1183 286 loadbang;
#X obj 1110 345 soundfiler;
#X obj -61 705 select 1;
#X msg -61 735 bang;
#X obj 4 802 loadbang;
#X obj -69 861 soundfiler;
#X obj 137 702 select 1;
#X msg 137 732 bang;
#X obj 197 799 loadbang;
#X obj 129 858 soundfiler;
#X obj 572 237 tabplay~ Eb;
#X obj 650 342 table Eb;
#X obj 862 247 tabplay~ E;
#X obj 940 352 table E;
#X obj 1118 241 tabplay~ F;
#X obj 1196 346 table F;
#X obj -61 757 tabplay~ Gb;
#X obj 17 862 table Gb;
#X obj 381 709 select 1;
#X msg 381 739 bang;
#X obj 446 806 loadbang;
#X obj 373 865 soundfiler;
#X obj 711 705 select 1;
#X msg 711 735 bang;
#X obj 776 802 loadbang;
#X obj 703 861 soundfiler;
#X obj 922 703 select 1;
#X msg 922 733 bang;
#X obj 987 800 loadbang;
#X obj 914 859 soundfiler;
#X obj 1133 704 select 1;
#X msg 1133 734 bang;
#X obj 1198 801 loadbang;
#X obj 1125 860 soundfiler;
#X obj 137 754 tabplay~ G;
#X obj 210 859 table G;
#X obj 381 761 tabplay~ Ab;
#X obj 459 866 table Ab;
#X obj 711 757 tabplay~ A;
#X obj 789 862 table A;
#X obj 922 755 tabplay~ Bb;
#X obj 1000 860 table Bb;
#X obj 1133 756 tabplay~ B;
#X obj 1211 861 table B;
#X msg -112 318 read -resize C.wav C;
#X msg 164 308 read -resize Db.wav Db;
#X msg 385 311 read -resize D.wav D;
#X msg 565 311 read -resize Eb.wav Eb;
#X msg 855 321 read -resize E.wav E;
#X msg 1138 315 read -resize F.wav F;
#X msg -68 831 read -resize Gb.wav Gb;
#X msg 130 828 read -resize G.wav G;
#X msg 704 831 read -resize A.wav A;
#X msg 915 829 read -resize Bb.wav Bb;
#X obj 109 35 receive fromGUI;
#X msg 1126 830 read -resize B.wav B;
#X msg 374 835 read -resize Ab.wav Ab;
#X obj 470 342 table D;
#X obj -81 486 bng 15 250 50 0 empty empty empty 17 7 0 10 -262144
-1 -1;
#X obj -123 417 t b b b b b b b b b;
#X obj -124 567 send toSystem;
#X obj 379 449 bng 15 250 50 0 empty empty empty 17 7 0 10 -262144
-1 -1;
#X obj 352 549 send toSystem;
#X obj 880 470 bng 15 250 50 0 empty empty empty 17 7 0 10 -262144
-1 -1;
#X obj 842 545 send toSystem;
#X obj 353 399 t b b b b b b b b b b;
#X obj 838 401 t b b b b b b b b b b b;
#X obj 1148 463 bng 15 250 50 0 empty empty empty 17 7 0 10 -262144
-1 -1;
#X obj 1105 544 send toSystem;
#X obj 180 961 bng 15 250 50 0 empty empty empty 17 7 0 10 -262144
-1 -1;
#X obj 137 1042 send toSystem;
#X obj 707 956 bng 15 250 50 0 empty empty empty 17 7 0 10 -262144
-1 -1;
#X obj 664 1037 send toSystem;
#X obj 1145 970 bng 15 250 50 0 empty empty empty 17 7 0 10 -262144
-1 -1;
#X obj 1142 1036 send toSystem;
#X obj 153 472 bng 15 250 50 0 empty empty empty 17 7 0 10 -262144
-1 -1;
#X obj 110 553 send toSystem;
#X obj 606 444 bng 15 250 50 0 empty empty empty 17 7 0 10 -262144
-1 -1;
#X obj 579 544 send toSystem;
#X obj 580 394 t b b b b b b b b b b;
#X obj -61 959 bng 15 250 50 0 empty empty empty 17 7 0 10 -262144
-1 -1;
#X obj -104 1040 send toSystem;
#X obj -87 909 t b b b b b b b b b b b b;
#X obj 411 974 bng 15 250 50 0 empty empty empty 17 7 0 10 -262144
-1 -1;
#X obj 368 1055 send toSystem;
#X obj 901 970 bng 15 250 50 0 empty empty empty 17 7 0 10 -262144
-1 -1;
#X obj 898 1036 send toSystem;
#X obj 111 403 t b b b b b b b b b;
#X obj 1106 394 t b b b b b b b b b b b;
#X obj 154 911 t b b b b b b b b b b b b b;
#X obj 681 906 t b b b b b b b b b b b b b b;
#X obj 895 896 t b b b b b b b b b b b b b b b;
#X obj -100 1232 select 1;
#X msg -100 1262 bang;
#X obj -35 1329 loadbang;
#X obj -108 1388 soundfiler;
#X obj -88 1498 bng 15 250 50 0 empty empty empty 17 7 0 10 -262144
-1 -1;
#X obj -91 1564 send toSystem;
#X obj -100 1284 tabplay~ C5;
#X msg -107 1358 read -resize C5.wav C5;
#X obj -22 1389 table C5;
#X obj 247 1243 select 1;
#X msg 269 1303 bang;
#X obj 331 1351 loadbang;
#X obj 258 1406 soundfiler;
#X obj 279 1498 bng 15 250 50 0 empty empty empty 17 7 0 10 -262144
-1 -1;
#X obj 276 1564 send toSystem;
#X obj 269 1325 tabplay~ Db5;
#X msg 259 1376 read -resize Db5.wav Db5;
#X obj 344 1407 table Db5;
#X obj 603 1252 select 1;
#X msg 625 1298 bang;
#X obj 687 1346 loadbang;
#X obj 614 1401 soundfiler;
#X obj 635 1493 bng 15 250 50 0 empty empty empty 17 7 0 10 -262144
-1 -1;
#X obj 632 1559 send toSystem;
#X obj 625 1320 tabplay~ D5;
#X msg 615 1371 read -resize D5.wav D5;
#X obj 700 1402 table D5;
#X msg -139 528 list /vibrate 30.58;
#X obj 14 452 delay 61.15;
#X obj 9 476 delay 122.3;
#X obj 6 502 delay 183.45;
#X obj 10 533 delay 244.6;
#X obj 9 566 delay 305.75;
#X obj 5 600 delay 366.6;
#X obj 1 627 delay 428.5;
#X obj -96 603 delay 489.2;
#X msg 100 509 list /vibrate 28.86;
#X obj 244 459 delay 57.72;
#X obj 242 489 delay 115.44;
#X obj 244 524 delay 173.16;
#X obj 248 555 delay 230.88;
#X obj 251 581 delay 288.6;
#X obj 251 614 delay 346.32;
#X obj 146 580 delay 404.04;
#X obj 147 611 delay 461.76;
#X msg 342 507 list /vibrate 27.24;
#X obj 485 455 delay 54.48;
#X obj 483 484 delay 108.96;
#X obj 483 515 delay 163.44;
#X obj 485 547 delay 217.92;
#X obj 493 578 delay 272.4;
#X obj 495 605 delay 326.88;
#X obj 374 574 delay 381.36;
#X obj 389 602 delay 435.84;
#X obj 395 630 delay 490.32;
#X msg 577 505 list /vibrate 25.71;
#X obj 714 447 delay 51.43;
#X obj 716 479 delay 102.86;
#X obj 717 509 delay 154.29;
#X obj 725 539 delay 205.72;
#X obj 724 568 delay 257.15;
#X obj 726 596 delay 308.58;
#X obj 618 574 delay 360.01;
#X obj 614 604 delay 411.14;
#X obj 617 630 delay 462.87;
#X msg 815 510 list /vibrate 24.27;
#X obj 967 451 delay 48.54;
#X obj 973 481 delay 97.08;
#X obj 971 511 delay 145.62;
#X obj 977 542 delay 194.16;
#X obj 984 575 delay 242.7;
#X obj 987 608 delay 291.24;
#X obj 858 581 delay 339.78;
#X obj 854 611 delay 388.32;
#X obj 870 639 delay 436.86;
#X obj 874 667 delay 485.4;
#X msg 1087 508 list /vibrate 22.91;
#X obj 1227 449 delay 45.81;
#X obj 1233 480 delay 91.62;
#X obj 1234 511 delay 137.43;
#X obj 1237 544 delay 183.24;
#X obj 1249 572 delay 229.05;
#X obj 1260 600 delay 274.86;
#X obj 1260 627 delay 320.67;
#X obj 1130 580 delay 366.48;
#X obj 1140 606 delay 412.29;
#X obj 1142 635 delay 458.1;
#X msg -125 1005 list /vibrate 21.62;
#X obj 31 947 delay 43.24;
#X obj 24 971 delay 86.48;
#X obj 29 1004 delay 129.72;
#X obj 30 1036 delay 172.96;
#X obj 31 1065 delay 216.2;
#X obj 33 1094 delay 259.44;
#X obj 30 1125 delay 302.68;
#X obj -93 1081 delay 345.92;
#X obj -85 1113 delay 389.16;
#X obj -83 1145 delay 432.4;
#X obj -80 1177 delay 475.64;
#X msg 124 994 list /vibrate 20.41;
#X obj 272 948 delay 40.82;
#X obj 271 975 delay 81.64;
#X obj 268 1008 delay 122.46;
#X obj 271 1039 delay 163.28;
#X obj 273 1070 delay 204.1;
#X obj 274 1102 delay 244.92;
#X obj 268 1128 delay 285.74;
#X obj 273 1162 delay 326.56;
#X obj 151 1078 delay 367.38;
#X obj 154 1111 delay 408.2;
#X obj 160 1135 delay 449.02;
#X obj 154 1174 delay 488.84;
#X msg 359 1006 list /vibrate 19.26;
#X obj 505 963 delay 38.53;
#X obj 506 990 delay 77.06;
#X obj 511 1019 delay 115.59;
#X obj 514 1052 delay 154.12;
#X obj 515 1079 delay 192.65;
#X obj 509 1109 delay 231.18;
#X obj 510 1140 delay 269.71;
#X obj 395 1088 delay 308.24;
#X obj 394 1121 delay 346.77;
#X obj 391 1149 delay 385.3;
#X obj 396 1177 delay 423.83;
#X obj 397 1207 delay 462.36;
#X obj 385 924 t b b b b b b b b b b b b b;
#X msg 633 1000 list /vibrate 18.18;
#X obj 793 946 delay 36.36;
#X obj 792 976 delay 72.72;
#X obj 798 1009 delay 109.08;
#X obj 798 1039 delay 145.44;
#X obj 804 1069 delay 181.8;
#X obj 804 1099 delay 218.16;
#X obj 805 1124 delay 254.52;
#X obj 809 1159 delay 290.88;
#X obj 679 1071 delay 327.24;
#X obj 688 1104 delay 363.6;
#X obj 689 1134 delay 399.96;
#X obj 688 1161 delay 436.32;
#X obj 690 1192 delay 472.68;
#X msg 881 987 list /vibrate 17.16;
#X obj 1030 942 delay 34.32;
#X obj 1034 972 delay 68.64;
#X obj 1034 1008 delay 102.96;
#X obj 1036 1037 delay 137.28;
#X obj 1036 1064 delay 171.6;
#X obj 1039 1093 delay 205.92;
#X obj 1037 1127 delay 240.24;
#X obj 1040 1156 delay 274.56;
#X obj 1038 1185 delay 308.88;
#X obj 1045 1218 delay 343.2;
#X obj 929 1075 delay 377.52;
#X obj 930 1101 delay 411.84;
#X obj 924 1130 delay 446.16;
#X obj 925 1158 delay 480.48;
#X msg 1145 1002 list /vibrate 16.2;
#X obj 1279 945 delay 32.4;
#X obj 1283 976 delay 64.8;
#X obj 1293 1005 delay 97.2;
#X obj 1291 1035 delay 129.6;
#X obj 1291 1062 delay 162;
#X obj 1289 1094 delay 194.4;
#X obj 1289 1127 delay 226.8;
#X obj 1287 1159 delay 259.2;
#X obj 1288 1191 delay 291.6;
#X obj 1293 1220 delay 324;
#X obj 1178 1071 delay 356.4;
#X obj 1173 1105 delay 388.8;
#X obj 1167 1141 delay 421.2;
#X obj 1165 1170 delay 453.6;
#X obj 1156 1201 delay 486;
#X msg -122 1529 list /vibrate 15.29;
#X obj 38 1471 delay 30.58;
#X obj 40 1501 delay 61.16;
#X obj 41 1533 delay 91.74;
#X obj 45 1565 delay 122.32;
#X obj 44 1591 delay 152.9;
#X obj 50 1628 delay 183.48;
#X obj 45 1655 delay 214.06;
#X obj 49 1683 delay 244.64;
#X obj 48 1715 delay 275.22;
#X obj 50 1745 delay 305.8;
#X obj -75 1600 delay 336.38;
#X obj -71 1632 delay 366.96;
#X obj -76 1668 delay 397.54;
#X obj -66 1695 delay 428.12;
#X obj -71 1727 delay 458.7;
#X obj -74 1753 delay 489.28;
#X msg 242 1531 list /vibrate 14.43;
#X obj 405 1471 delay 28.86;
#X obj 407 1501 delay 57.72;
#X obj 408 1533 delay 86.58;
#X obj 412 1565 delay 115.44;
#X obj 411 1591 delay 144.3;
#X obj 417 1628 delay 173.16;
#X obj 412 1655 delay 202.2;
#X obj 416 1683 delay 230.88;
#X obj 415 1715 delay 259.74;
#X obj 417 1745 delay 288.6;
#X obj 292 1600 delay 317.46;
#X obj 296 1632 delay 346.32;
#X obj 291 1663 delay 375.18;
#X obj 301 1694 delay 404.04;
#X obj 296 1727 delay 432.9;
#X obj 293 1753 delay 461.76;
#X obj 295 1780 delay 490.62;
#X msg 600 1524 list /vibrate 13.62;
#X obj 762 1467 delay 27.24;
#X obj 768 1494 delay 54.48;
#X obj 772 1523 delay 81.72;
#X obj 772 1558 delay 108.96;
#X obj 771 1589 delay 136.2;
#X obj 771 1623 delay 163.44;
#X obj 768 1649 delay 190.68;
#X obj 767 1679 delay 217.92;
#X obj 772 1712 delay 245.16;
#X obj 770 1742 delay 272.4;
#X obj 662 1599 delay 299.64;
#X obj 661 1630 delay 326.88;
#X obj 658 1659 delay 354.12;
#X obj 654 1690 delay 391.36;
#X obj 653 1723 delay 408.6;
#X obj 655 1757 delay 435.84;
#X obj 655 1793 delay 463.08;
#X obj 649 1822 delay 490.32;
#X obj 965 1264 select 1;
#X msg 978 1299 bang;
#X obj 1040 1347 loadbang;
#X obj 967 1402 soundfiler;
#X obj 988 1494 bng 15 250 50 0 empty empty empty 17 7 0 10 -262144
-1 -1;
#X obj 985 1560 send toSystem;
#X obj 978 1321 tabplay~ Eb5;
#X msg 968 1372 read -resize Eb5.wav Eb5;
#X msg 953 1525 list /vibrate 12.86;
#X obj 1117 1468 delay 25.72;
#X obj 1123 1498 delay 51.44;
#X obj 1127 1526 delay 77.16;
#X obj 1129 1560 delay 102.88;
#X obj 1129 1591 delay 128.6;
#X obj 1129 1624 delay 154.32;
#X obj 1128 1651 delay 180.04;
#X obj 1130 1682 delay 205.76;
#X obj 1131 1710 delay 231.48;
#X obj 1136 1739 delay 257.2;
#X obj 1015 1596 delay 282.92;
#X obj 1014 1629 delay 308.64;
#X obj 1012 1665 delay 334.36;
#X obj 1008 1695 delay 360.08;
#X obj 1012 1724 delay 385.8;
#X obj 1008 1754 delay 411.52;
#X obj 1013 1786 delay 437.24;
#X obj 1010 1811 delay 462.96;
#X obj 1009 1840 delay 488.68;
#X obj 1322 1261 select 1;
#X msg 1327 1294 bang;
#X obj 1389 1342 loadbang;
#X obj 1316 1397 soundfiler;
#X obj 1337 1489 bng 15 250 50 0 empty empty empty 17 7 0 10 -262144
-1 -1;
#X obj 1334 1555 send toSystem;
#X obj 1327 1316 tabplay~ E5;
#X msg 1317 1367 read -resize E5.wav E5;
#X obj 1053 1403 table Eb5;
#X obj 1402 1398 table E5;
#X msg 1302 1520 list /vibrate 12.14;
#X obj 1453 1467 delay 24.28;
#X obj 1465 1494 delay 48.56;
#X obj 1474 1524 delay 72.84;
#X obj 1473 1554 delay 97.12;
#X obj 1474 1587 delay 121.4;
#X obj 1476 1617 delay 145.68;
#X obj 1477 1646 delay 169.96;
#X obj 1479 1674 delay 194.24;
#X obj 1481 1706 delay 218.52;
#X obj 1481 1735 delay 242.8;
#X obj 1363 1595 delay 267.08;
#X obj 1360 1622 delay 291.36;
#X obj 1359 1656 delay 415.64;
#X obj 1361 1690 delay 339.92;
#X obj 1359 1721 delay 364.2;
#X obj 1360 1757 delay 388.48;
#X obj 1358 1784 delay 412.76;
#X obj 1362 1814 delay 437.04;
#X obj 1356 1842 delay 461.32;
#X obj 1351 1424 t b b b b b b b b b b b b b b b b b b b b;
#X obj 1358 1867 delay 485.6;
#X obj 1646 1231 select 1;
#X msg 1655 1276 bang;
#X obj 1717 1324 loadbang;
#X obj 1644 1379 soundfiler;
#X obj 1616 1650 bng 15 250 50 0 empty empty empty 17 7 0 10 -262144
-1 -1;
#X obj 1662 1537 send toSystem;
#X obj 1655 1298 tabplay~ F5;
#X msg 1645 1349 read -resize F5.wav F5;
#X obj 1730 1380 table F5;
#X msg 1630 1502 list /vibrate 11.45;
#X obj 1798 1449 delay 22.9;
#X obj 1787 1476 delay 45.8;
#X obj 1809 1506 delay 68.7;
#X obj 1809 1539 delay 91.6;
#X obj 1811 1571 delay 114.5;
#X obj 1812 1604 delay 137.4;
#X obj 1809 1631 delay 160.3;
#X obj 1812 1660 delay 183.2;
#X obj 1813 1689 delay 206.1;
#X obj 1818 1718 delay 229;
#X obj 1674 1579 delay 251.9;
#X obj 1671 1607 delay 274.8;
#X obj 1670 1641 delay 297.7;
#X obj 1676 1668 delay 320.6;
#X obj 1678 1696 delay 343.5;
#X obj 1679 1730 delay 366.4;
#X obj 1679 1762 delay 389.3;
#X obj 1686 1794 delay 412.2;
#X obj 1691 1822 delay 435.1;
#X obj 1691 1851 delay 458;
#X obj 1691 1883 delay 480.9;
#X obj 1991 1188 select 1;
#X msg 2006 1277 bang;
#X obj 2068 1325 loadbang;
#X obj 1995 1380 soundfiler;
#X obj 1974 1460 bng 15 250 50 0 empty empty empty 17 7 0 10 -262144
-1 -1;
#X obj 2013 1538 send toSystem;
#X obj 2006 1299 tabplay~ Gb5;
#X msg 1996 1350 read -resize Gb5.wav Gb5;
#X obj 2081 1381 table Gb5;
#X msg 1981 1503 list /vibrate 10.81;
#X obj 2155 1486 delay 21.62;
#X obj 2163 1521 delay 43.24;
#X obj 2164 1554 delay 64.86;
#X obj 2172 1585 delay 86.48;
#X obj 2176 1615 delay 108.1;
#X obj 2188 1644 delay 129.72;
#X obj 2189 1673 delay 151.34;
#X obj 2187 1705 delay 172.96;
#X obj 2192 1733 delay 194.58;
#X obj 2198 1763 delay 216.2;
#X obj 2051 1573 delay 237.82;
#X obj 2056 1606 delay 259.44;
#X obj 2066 1671 delay 302.68;
#X obj 2070 1705 delay 324.3;
#X obj 2073 1737 delay 345.92;
#X obj 2075 1764 delay 367.54;
#X obj 2074 1789 delay 389.16;
#X obj 2075 1818 delay 410.78;
#X obj 2073 1851 delay 432.4;
#X obj 2073 1881 delay 454.02;
#X obj 2355 1198 select 1;
#X msg 2355 1248 bang;
#X obj 2417 1296 loadbang;
#X obj 2344 1351 soundfiler;
#X obj 2305 1572 bng 15 250 50 0 empty empty empty 17 7 0 10 -262144
-1 -1;
#X obj 2362 1509 send toSystem;
#X obj 2355 1270 tabplay~ G5;
#X msg 2345 1321 read -resize G5.wav G5;
#X obj 2430 1352 table G5;
#X msg 2330 1474 list /vibrate 10.2;
#X obj 2512 1454 delay 20.4;
#X obj 2527 1487 delay 40.8;
#X obj 2517 1521 delay 61.2;
#X obj 2520 1550 delay 81.6;
#X obj 2525 1582 delay 102;
#X obj 2531 1614 delay 122.4;
#X obj 2546 1650 delay 142.8;
#X obj 2536 1677 delay 163.2;
#X obj 2524 1703 delay 183.6;
#X obj 2523 1735 delay 204;
#X obj 2382 1546 delay 224.4;
#X obj 2381 1574 delay 244.8;
#X obj 2390 1608 delay 265.2;
#X obj 2386 1638 delay 285.6;
#X obj 2389 1671 delay 306;
#X obj 2381 1704 delay 326.4;
#X obj 2383 1735 delay 346.8;
#X obj 2387 1765 delay 367.2;
#X obj 2400 1795 delay 387.6;
#X obj 2399 1822 delay 408;
#X obj 2395 1850 delay 428.4;
#X obj 2399 1876 delay 448.8;
#X obj 2398 1901 delay 469.2;
#X obj 2401 1928 delay 489.6;
#X obj 1998 1405 t b b b b b b b b b b b b b b b b b b b b b b b;
#X obj 2073 1911 delay 497.26;
#X obj 2058 1636 delay 281.06;
#X obj 2345 1384 t b b b b b b b b b b b b b b b b b b b b b b b b
b;
#X obj 1669 1408 t b b b b b b b b b b b b b b b b b b b b b b;
#X obj 1002 1429 t b b b b b b b b b b b b b b b b b b b b;
#X obj 649 1428 t b b b b b b b b b b b b b b b b b b b;
#X obj 293 1433 t b b b b b b b b b b b b b b b b b b;
#X obj -74 1433 t b b b b b b b b b b b b b b b b b;
#X obj 1159 905 t b b b b b b b b b b b b b b b b;
#X obj 258 92 route /C /Db /D /Eb /E /F /Gb /G /Ab /A /Bb /B /C5 /Db5
/D5 /Eb5 /E5 /F5 /Gb5 /G5;
#X obj 1739 856 route list;
#X obj 1740 809 receive fromGUI;
#X obj 1734 1079 dac~;
#X obj 1717 886 receive fromGUI;
#X obj 1717 916 list trim;
#X floatatom 1713 975 5 0 0 0 - - -, f 5;
#X obj 1716 997 * 0.1;
#X obj 1732 1040 *~ 1;
#X obj 1704 946 route /volteclado;
#X obj 1545 46 receive fromGUI;
#X obj 1548 77 list trim;
#X obj 1551 115 route /mySlider;
#X floatatom 1709 128 5 0 0 0 - - -, f 5;
#X floatatom 1711 85 5 0 0 0 - - -, f 5;
#X obj 1709 156 * 2;
#X floatatom 1707 191 5 0 0 0 - - -, f 5;
#X obj 1695 219 expr 1000/($f1/60);
#X floatatom 1695 246 5 0 0 0 - - -, f 5;
#X obj 1636 290 metro;
#X obj 1541 154 receive fromGUI;
#X obj 1541 184 list trim;
#X obj 1544 222 route /mytoogle;
#X obj 1574 261 tgl 15 0 empty empty empty 17 7 0 10 -262144 -1 -1
0 1;
#X obj 1633 329 tgl 15 0 empty empty empty 17 7 0 10 -262144 -1 -1
0 1;
#X obj 1818 300 loadbang;
#X obj 1766 359 soundfiler;
#X obj 1797 266 tabplay~ metro;
#X msg 1736 333 read -resize metro.wav metro;
#X obj 1848 361 table metro;
#X obj 1709 104 + 50;
#X obj 2256 528 dac~;
#X obj 1545 369 receive fromGUI;
#X obj 1545 399 list trim;
#X floatatom 1710 382 5 0 0 0 - - -, f 5;
#X obj 1548 437 route /volmetro;
#X floatatom 2153 62 5 0 0 0 - - -, f 5;
#X obj 2158 134 bng 15 250 50 0 empty empty empty 17 7 0 10 -262144
-1 -1;
#X obj 2149 93 select 1;
#X obj 2063 154 f;
#X obj 2115 155 + 1;
#X floatatom 2053 188 5 0 0 0 - - -, f 5;
#X obj 2025 88 bng 15 250 50 0 empty empty empty 17 7 0 10 -262144
-1 -1;
#X obj 2001 49 select 0;
#X obj 2115 182 mod;
#X msg 2258 125 2;
#X msg 2257 156 3;
#X msg 2256 193 4;
#X msg 2259 92 1;
#X obj 2050 207 select 0 1 2 3;
#X obj 1807 245 bng 15 250 50 0 empty empty empty 17 7 0 10 -262144
-1 -1;
#X obj 2021 237 bng 15 250 50 0 empty empty empty 17 7 0 10 -262144
-1 -1;
#X obj 2218 249 bng 15 250 50 0 empty empty empty 17 7 0 10 -262144
-1 -1;
#X obj 2720 267 bng 15 250 50 0 empty empty empty 17 7 0 10 -262144
-1 -1;
#X msg 2002 117 -1;
#X obj 2041 302 loadbang;
#X obj 1989 361 soundfiler;
#X obj 2020 268 tabplay~ metro;
#X msg 1959 335 read -resize metro.wav metro;
#X obj 2071 363 table metro;
#X obj 2313 296 loadbang;
#X obj 2261 355 soundfiler;
#X obj 2292 262 tabplay~ metro;
#X msg 2231 329 read -resize metro.wav metro;
#X obj 2343 357 table metro;
#X obj 2773 283 loadbang;
#X obj 2721 342 soundfiler;
#X obj 2752 249 tabplay~ metro;
#X msg 2691 316 read -resize metro.wav metro;
#X obj 2803 344 table metro;
#X obj 2321 80 bng 15 250 50 0 empty empty empty 17 7 0 10 -262144
-1 -1;
#X obj 2321 117 bng 15 250 50 0 empty empty empty 17 7 0 10 -262144
-1 -1;
#X obj 2326 147 bng 15 250 50 0 empty empty empty 17 7 0 10 -262144
-1 -1;
#X obj 2324 182 bng 15 250 50 0 empty empty empty 17 7 0 10 -262144
-1 -1;
#X obj 1837 736 send toGUI;
#X obj 1583 544 delay;
#X floatatom 2419 179 5 0 0 0 - - -, f 5;
#X obj 2502 47 receive fromGUI;
#X obj 2502 77 list trim;
#X floatatom 2502 137 5 0 0 0 - - -, f 5;
#X obj 2516 159 + 1;
#X obj 2387 79 sel 1 2 3 4;
#X obj 2506 111 route /compasso;
#X msg 1849 659 1;
#X msg 1881 659 0;
#X obj 1861 684 tgl 15 0 empty empty empty 17 7 0 10 -262144 -1 -1
0 1;
#X obj 2026 739 send toGUI;
#X msg 2050 666 1;
#X msg 2082 666 0;
#X obj 2062 691 tgl 15 0 empty empty empty 17 7 0 10 -262144 -1 -1
0 1;
#X obj 2213 737 send toGUI;
#X msg 2237 664 1;
#X msg 2269 664 0;
#X obj 2249 689 tgl 15 0 empty empty empty 17 7 0 10 -262144 -1 -1
0 1;
#X obj 2577 736 send toGUI;
#X msg 2601 663 1;
#X msg 2633 663 0;
#X obj 2613 688 tgl 15 0 empty empty empty 17 7 0 10 -262144 -1 -1
0 1;
#X msg 1835 706 list /button1 \$1;
#X msg 2036 713 list /button2 \$1;
#X msg 2223 711 list /button33 \$1;
#X msg 2587 710 list /button4 \$1;
#X obj 2361 213 sel 1 2 3 4;
#X obj 1821 414 * 0.1;
#X obj 1864 466 *~ 1;
#X obj 2046 468 *~ 0.4;
#X obj 2379 736 send toGUI;
#X msg 2403 663 1;
#X msg 2435 663 0;
#X obj 2415 688 tgl 15 0 empty empty empty 17 7 0 10 -262144 -1 -1
0 1;
#X msg 2389 710 list /button34 \$1;
#X obj 2235 601 expr $f1 + $f2;
#X floatatom 2221 581 5 0 0 0 - - -, f 5;
#X floatatom 2316 576 5 0 0 0 - - -, f 5;
#X msg 2313 548 3;
#X msg 2365 544 4, f 2;
#X floatatom 2365 575 5 0 0 0 - - -, f 5;
#X obj 2315 634 sel 5 6;
#X msg 2219 555 2;
#X obj 2500 250 bng 15 250 50 0 empty empty empty 17 7 0 10 -262144
-1 -1;
#X obj 2555 301 loadbang;
#X obj 2503 360 soundfiler;
#X obj 2534 267 tabplay~ metro;
#X msg 2473 334 read -resize metro.wav metro;
#X obj 2585 362 table metro;
#X obj 2525 468 *~ 0.8;
#X obj 2258 476 *~ 0.3;
#X obj 2054 423 * 0.04;
#X obj 2232 428 * 0.03;
#X obj 2481 428 * 0.08;
#X floatatom 1902 439 5 0 0 0 - - -, f 5;
#X obj 2745 446 *~ 0.3;
#X obj 2693 427 * 0.03;
#X obj 1568 297 sel 1;
#X obj 1549 487 expr $f1/2;
#X obj 2446 784 receive fromGUI;
#X obj 2446 814 list trim;
#X obj 2449 852 route /flash;
#X obj 2303 1031 send toSystem;
#X msg 2313 1006 list /flash \$1;
#X obj 2285 946 expr $f1*$f2;
#X obj 2442 906 tgl 15 0 empty empty empty 17 7 0 10 -262144 -1 -1
0 1;
#X obj 2291 976 tgl 15 0 empty empty empty 17 7 0 10 -262144 -1 -1
0 1;
#X connect 0 0 510 0;
#X connect 1 0 2 0;
#X connect 2 0 5 0;
#X connect 2 0 87 0;
#X connect 3 0 72 0;
#X connect 5 0 518 0;
#X connect 7 0 8 0;
#X connect 8 0 11 0;
#X connect 8 0 115 0;
#X connect 9 0 73 0;
#X connect 11 0 518 0;
#X connect 13 0 14 0;
#X connect 14 0 17 0;
#X connect 14 0 93 0;
#X connect 15 0 74 0;
#X connect 17 0 518 0;
#X connect 18 0 19 0;
#X connect 19 0 38 0;
#X connect 19 0 107 0;
#X connect 20 0 75 0;
#X connect 22 0 23 0;
#X connect 23 0 40 0;
#X connect 23 0 94 0;
#X connect 24 0 76 0;
#X connect 26 0 27 0;
#X connect 27 0 42 0;
#X connect 27 0 116 0;
#X connect 28 0 77 0;
#X connect 30 0 31 0;
#X connect 31 0 44 0;
#X connect 31 0 110 0;
#X connect 32 0 78 0;
#X connect 34 0 35 0;
#X connect 35 0 62 0;
#X connect 35 0 117 0;
#X connect 36 0 79 0;
#X connect 38 0 518 0;
#X connect 40 0 518 0;
#X connect 42 0 518 0;
#X connect 44 0 518 0;
#X connect 46 0 47 0;
#X connect 47 0 64 0;
#X connect 47 0 245 0;
#X connect 48 0 84 0;
#X connect 50 0 51 0;
#X connect 51 0 66 0;
#X connect 51 0 118 0;
#X connect 52 0 80 0;
#X connect 54 0 55 0;
#X connect 55 0 68 0;
#X connect 55 0 119 0;
#X connect 56 0 81 0;
#X connect 58 0 59 0;
#X connect 59 0 70 0;
#X connect 59 0 509 0;
#X connect 60 0 83 0;
#X connect 62 0 518 0;
#X connect 64 0 518 0;
#X connect 66 0 518 0;
#X connect 68 0 518 0;
#X connect 70 0 518 0;
#X connect 72 0 4 0;
#X connect 73 0 10 0;
#X connect 74 0 16 0;
#X connect 75 0 21 0;
#X connect 76 0 25 0;
#X connect 77 0 29 0;
#X connect 78 0 33 0;
#X connect 79 0 37 0;
#X connect 80 0 53 0;
#X connect 81 0 57 0;
#X connect 82 0 0 0;
#X connect 83 0 61 0;
#X connect 84 0 49 0;
#X connect 86 0 147 0;
#X connect 87 0 86 0;
#X connect 87 1 148 0;
#X connect 87 2 150 0;
#X connect 87 3 151 0;
#X connect 87 4 152 0;
#X connect 87 5 149 0;
#X connect 87 6 153 0;
#X connect 87 7 154 0;
#X connect 87 8 155 0;
#X connect 89 0 165 0;
#X connect 91 0 185 0;
#X connect 93 0 89 0;
#X connect 93 1 166 0;
#X connect 93 2 167 0;
#X connect 93 3 168 0;
#X connect 93 4 169 0;
#X connect 93 5 170 0;
#X connect 93 6 171 0;
#X connect 93 7 172 0;
#X connect 93 8 173 0;
#X connect 93 9 174 0;
#X connect 94 0 91 0;
#X connect 94 1 186 0;
#X connect 94 2 187 0;
#X connect 94 3 188 0;
#X connect 94 4 189 0;
#X connect 94 5 190 0;
#X connect 94 6 191 0;
#X connect 94 7 192 0;
#X connect 94 8 193 0;
#X connect 94 9 194 0;
#X connect 94 10 195 0;
#X connect 95 0 196 0;
#X connect 97 0 219 0;
#X connect 99 0 246 0;
#X connect 101 0 275 0;
#X connect 103 0 156 0;
#X connect 105 0 175 0;
#X connect 107 0 105 0;
#X connect 107 1 176 0;
#X connect 107 2 177 0;
#X connect 107 3 178 0;
#X connect 107 4 179 0;
#X connect 107 5 180 0;
#X connect 107 6 181 0;
#X connect 107 7 182 0;
#X connect 107 8 183 0;
#X connect 107 9 184 0;
#X connect 108 0 207 0;
#X connect 110 0 108 0;
#X connect 110 1 208 0;
#X connect 110 2 209 0;
#X connect 110 3 210 0;
#X connect 110 4 211 0;
#X connect 110 5 212 0;
#X connect 110 6 213 0;
#X connect 110 7 214 0;
#X connect 110 8 215 0;
#X connect 110 9 216 0;
#X connect 110 10 217 0;
#X connect 110 11 218 0;
#X connect 111 0 232 0;
#X connect 113 0 260 0;
#X connect 115 0 103 0;
#X connect 115 1 157 0;
#X connect 115 2 158 0;
#X connect 115 3 159 0;
#X connect 115 4 160 0;
#X connect 115 5 161 0;
#X connect 115 6 162 0;
#X connect 115 7 163 0;
#X connect 115 8 164 0;
#X connect 116 0 95 0;
#X connect 116 1 197 0;
#X connect 116 2 198 0;
#X connect 116 3 199 0;
#X connect 116 4 200 0;
#X connect 116 5 201 0;
#X connect 116 6 202 0;
#X connect 116 7 203 0;
#X connect 116 8 204 0;
#X connect 116 9 205 0;
#X connect 116 10 206 0;
#X connect 117 0 97 0;
#X connect 117 1 220 0;
#X connect 117 2 221 0;
#X connect 117 3 222 0;
#X connect 117 4 223 0;
#X connect 117 5 224 0;
#X connect 117 6 228 0;
#X connect 117 7 225 0;
#X connect 117 8 226 0;
#X connect 117 9 227 0;
#X connect 117 10 229 0;
#X connect 117 11 230 0;
#X connect 117 12 231 0;
#X connect 118 0 99 0;
#X connect 118 1 247 0;
#X connect 118 2 248 0;
#X connect 118 3 249 0;
#X connect 118 4 250 0;
#X connect 118 5 251 0;
#X connect 118 6 252 0;
#X connect 118 7 253 0;
#X connect 118 8 254 0;
#X connect 118 9 255 0;
#X connect 118 10 256 0;
#X connect 118 11 257 0;
#X connect 118 12 258 0;
#X connect 118 13 259 0;
#X connect 119 0 113 0;
#X connect 119 1 261 0;
#X connect 119 2 262 0;
#X connect 119 3 263 0;
#X connect 119 4 264 0;
#X connect 119 5 265 0;
#X connect 119 6 266 0;
#X connect 119 7 267 0;
#X connect 119 8 268 0;
#X connect 119 9 269 0;
#X connect 119 10 270 0;
#X connect 119 11 271 0;
#X connect 119 12 272 0;
#X connect 119 13 273 0;
#X connect 119 14 274 0;
#X connect 120 0 121 0;
#X connect 121 0 126 0;
#X connect 121 0 508 0;
#X connect 122 0 127 0;
#X connect 124 0 291 0;
#X connect 126 0 518 0;
#X connect 127 0 123 0;
#X connect 129 0 130 0;
#X connect 130 0 135 0;
#X connect 130 0 507 0;
#X connect 131 0 136 0;
#X connect 133 0 308 0;
#X connect 135 0 518 0;
#X connect 136 0 132 0;
#X connect 138 0 139 0;
#X connect 139 0 144 0;
#X connect 139 0 506 0;
#X connect 140 0 145 0;
#X connect 142 0 326 0;
#X connect 144 0 518 0;
#X connect 145 0 141 0;
#X connect 147 0 88 0;
#X connect 148 0 86 0;
#X connect 149 0 86 0;
#X connect 150 0 86 0;
#X connect 151 0 86 0;
#X connect 152 0 86 0;
#X connect 153 0 86 0;
#X connect 154 0 86 0;
#X connect 155 0 86 0;
#X connect 156 0 104 0;
#X connect 157 0 103 0;
#X connect 158 0 103 0;
#X connect 159 0 103 0;
#X connect 160 0 103 0;
#X connect 161 0 103 0;
#X connect 162 0 103 0;
#X connect 163 0 103 0;
#X connect 164 0 103 0;
#X connect 165 0 90 0;
#X connect 166 0 89 0;
#X connect 167 0 89 0;
#X connect 168 0 89 0;
#X connect 169 0 89 0;
#X connect 170 0 89 0;
#X connect 171 0 89 0;
#X connect 172 0 89 0;
#X connect 173 0 89 0;
#X connect 174 0 89 0;
#X connect 175 0 106 0;
#X connect 176 0 105 0;
#X connect 177 0 105 0;
#X connect 178 0 105 0;
#X connect 179 0 105 0;
#X connect 180 0 105 0;
#X connect 181 0 105 0;
#X connect 182 0 105 0;
#X connect 183 0 105 0;
#X connect 184 0 105 0;
#X connect 185 0 92 0;
#X connect 186 0 91 0;
#X connect 187 0 91 0;
#X connect 188 0 91 0;
#X connect 189 0 91 0;
#X connect 190 0 91 0;
#X connect 191 0 91 0;
#X connect 192 0 91 0;
#X connect 193 0 91 0;
#X connect 194 0 91 0;
#X connect 195 0 91 0;
#X connect 196 0 96 0;
#X connect 197 0 95 0;
#X connect 198 0 95 0;
#X connect 199 0 95 0;
#X connect 200 0 95 0;
#X connect 201 0 95 0;
#X connect 202 0 95 0;
#X connect 203 0 95 0;
#X connect 204 0 95 0;
#X connect 205 0 95 0;
#X connect 206 0 95 0;
#X connect 207 0 109 0;
#X connect 208 0 108 0;
#X connect 209 0 108 0;
#X connect 210 0 108 0;
#X connect 211 0 108 0;
#X connect 212 0 108 0;
#X connect 213 0 108 0;
#X connect 214 0 108 0;
#X connect 215 0 108 0;
#X connect 216 0 108 0;
#X connect 217 0 108 0;
#X connect 218 0 108 0;
#X connect 219 0 98 0;
#X connect 220 0 97 0;
#X connect 221 0 97 0;
#X connect 222 0 97 0;
#X connect 223 0 97 0;
#X connect 224 0 97 0;
#X connect 225 0 97 0;
#X connect 226 0 97 0;
#X connect 227 0 97 0;
#X connect 228 0 97 0;
#X connect 229 0 97 0;
#X connect 230 0 97 0;
#X connect 231 0 97 0;
#X connect 232 0 112 0;
#X connect 233 0 111 0;
#X connect 234 0 111 0;
#X connect 235 0 111 0;
#X connect 236 0 111 0;
#X connect 237 0 111 0;
#X connect 238 0 111 0;
#X connect 239 0 111 0;
#X connect 240 0 111 0;
#X connect 241 0 111 0;
#X connect 242 0 111 0;
#X connect 243 0 111 0;
#X connect 244 0 111 0;
#X connect 245 0 111 0;
#X connect 245 1 233 0;
#X connect 245 2 234 0;
#X connect 245 3 235 0;
#X connect 245 4 236 0;
#X connect 245 5 237 0;
#X connect 245 6 240 0;
#X connect 245 7 238 0;
#X connect 245 8 239 0;
#X connect 245 9 241 0;
#X connect 245 10 242 0;
#X connect 245 11 243 0;
#X connect 245 12 244 0;
#X connect 246 0 100 0;
#X connect 247 0 99 0;
#X connect 248 0 99 0;
#X connect 249 0 99 0;
#X connect 250 0 99 0;
#X connect 251 0 99 0;
#X connect 252 0 99 0;
#X connect 253 0 99 0;
#X connect 254 0 99 0;
#X connect 255 0 99 0;
#X connect 256 0 99 0;
#X connect 257 0 99 0;
#X connect 258 0 99 0;
#X connect 259 0 99 0;
#X connect 260 0 114 0;
#X connect 261 0 113 0;
#X connect 262 0 113 0;
#X connect 263 0 113 0;
#X connect 264 0 113 0;
#X connect 265 0 113 0;
#X connect 266 0 113 0;
#X connect 267 0 113 0;
#X connect 268 0 113 0;
#X connect 269 0 113 0;
#X connect 270 0 113 0;
#X connect 271 0 113 0;
#X connect 272 0 113 0;
#X connect 273 0 113 0;
#X connect 274 0 113 0;
#X connect 275 0 102 0;
#X connect 276 0 101 0;
#X connect 277 0 101 0;
#X connect 278 0 101 0;
#X connect 279 0 101 0;
#X connect 280 0 101 0;
#X connect 281 0 101 0;
#X connect 282 0 101 0;
#X connect 283 0 101 0;
#X connect 284 0 101 0;
#X connect 285 0 101 0;
#X connect 286 0 101 0;
#X connect 287 0 101 0;
#X connect 288 0 101 0;
#X connect 289 0 101 0;
#X connect 290 0 101 0;
#X connect 291 0 125 0;
#X connect 292 0 124 0;
#X connect 293 0 124 0;
#X connect 294 0 124 0;
#X connect 295 0 124 0;
#X connect 296 0 124 0;
#X connect 297 0 124 0;
#X connect 298 0 124 0;
#X connect 299 0 124 0;
#X connect 300 0 124 0;
#X connect 301 0 124 0;
#X connect 302 0 124 0;
#X connect 303 0 124 0;
#X connect 304 0 124 0;
#X connect 305 0 124 0;
#X connect 306 0 124 0;
#X connect 307 0 124 0;
#X connect 308 0 134 0;
#X connect 309 0 133 0;
#X connect 310 0 133 0;
#X connect 311 0 133 0;
#X connect 312 0 133 0;
#X connect 313 0 133 0;
#X connect 314 0 133 0;
#X connect 315 0 133 0;
#X connect 316 0 133 0;
#X connect 317 0 133 0;
#X connect 318 0 133 0;
#X connect 319 0 133 0;
#X connect 320 0 133 0;
#X connect 321 0 133 0;
#X connect 322 0 133 0;
#X connect 323 0 133 0;
#X connect 324 0 133 0;
#X connect 325 0 133 0;
#X connect 326 0 143 0;
#X connect 327 0 142 0;
#X connect 328 0 142 0;
#X connect 329 0 142 0;
#X connect 330 0 142 0;
#X connect 331 0 142 0;
#X connect 332 0 142 0;
#X connect 333 0 142 0;
#X connect 334 0 142 0;
#X connect 335 0 142 0;
#X connect 336 0 142 0;
#X connect 337 0 142 0;
#X connect 338 0 142 0;
#X connect 339 0 142 0;
#X connect 340 0 142 0;
#X connect 341 0 142 0;
#X connect 342 0 142 0;
#X connect 343 0 142 0;
#X connect 344 0 142 0;
#X connect 345 0 346 0;
#X connect 346 0 351 0;
#X connect 346 0 505 0;
#X connect 347 0 352 0;
#X connect 349 0 353 0;
#X connect 351 0 518 0;
#X connect 352 0 348 0;
#X connect 353 0 350 0;
#X connect 354 0 349 0;
#X connect 355 0 349 0;
#X connect 356 0 349 0;
#X connect 357 0 349 0;
#X connect 358 0 349 0;
#X connect 359 0 349 0;
#X connect 360 0 349 0;
#X connect 361 0 349 0;
#X connect 362 0 349 0;
#X connect 363 0 349 0;
#X connect 364 0 349 0;
#X connect 365 0 349 0;
#X connect 366 0 349 0;
#X connect 367 0 349 0;
#X connect 368 0 349 0;
#X connect 369 0 349 0;
#X connect 370 0 349 0;
#X connect 371 0 349 0;
#X connect 372 0 349 0;
#X connect 373 0 374 0;
#X connect 374 0 379 0;
#X connect 374 0 403 0;
#X connect 375 0 380 0;
#X connect 377 0 383 0;
#X connect 379 0 518 0;
#X connect 380 0 376 0;
#X connect 383 0 378 0;
#X connect 384 0 377 0;
#X connect 385 0 377 0;
#X connect 386 0 377 0;
#X connect 387 0 377 0;
#X connect 388 0 377 0;
#X connect 389 0 377 0;
#X connect 390 0 377 0;
#X connect 391 0 377 0;
#X connect 392 0 377 0;
#X connect 393 0 377 0;
#X connect 394 0 377 0;
#X connect 395 0 377 0;
#X connect 396 0 377 0;
#X connect 397 0 377 0;
#X connect 398 0 377 0;
#X connect 399 0 377 0;
#X connect 400 0 377 0;
#X connect 401 0 377 0;
#X connect 402 0 377 0;
#X connect 403 0 377 0;
#X connect 403 1 384 0;
#X connect 403 2 385 0;
#X connect 403 3 386 0;
#X connect 403 4 387 0;
#X connect 403 5 388 0;
#X connect 403 6 389 0;
#X connect 403 7 390 0;
#X connect 403 8 391 0;
#X connect 403 9 392 0;
#X connect 403 10 393 0;
#X connect 403 11 394 0;
#X connect 403 12 395 0;
#X connect 403 13 397 0;
#X connect 403 14 398 0;
#X connect 403 15 399 0;
#X connect 403 16 400 0;
#X connect 403 17 401 0;
#X connect 403 18 402 0;
#X connect 403 18 404 0;
#X connect 403 19 396 0;
#X connect 404 0 377 0;
#X connect 405 0 406 0;
#X connect 406 0 411 0;
#X connect 406 0 504 0;
#X connect 407 0 412 0;
#X connect 409 0 414 0;
#X connect 411 0 518 0;
#X connect 412 0 408 0;
#X connect 414 0 410 0;
#X connect 415 0 409 0;
#X connect 416 0 409 0;
#X connect 417 0 409 0;
#X connect 418 0 409 0;
#X connect 419 0 409 0;
#X connect 420 0 409 0;
#X connect 421 0 409 0;
#X connect 422 0 409 0;
#X connect 423 0 409 0;
#X connect 424 0 409 0;
#X connect 425 0 409 0;
#X connect 426 0 409 0;
#X connect 427 0 409 0;
#X connect 428 0 409 0;
#X connect 429 0 409 0;
#X connect 430 0 409 0;
#X connect 431 0 409 0;
#X connect 432 0 409 0;
#X connect 433 0 409 0;
#X connect 434 0 409 0;
#X connect 435 0 409 0;
#X connect 436 0 437 0;
#X connect 437 0 442 0;
#X connect 437 0 500 0;
#X connect 438 0 443 0;
#X connect 440 0 445 0;
#X connect 442 0 518 0;
#X connect 443 0 439 0;
#X connect 445 0 441 0;
#X connect 446 0 440 0;
#X connect 447 0 440 0;
#X connect 448 0 440 0;
#X connect 449 0 440 0;
#X connect 450 0 440 0;
#X connect 451 0 440 0;
#X connect 452 0 440 0;
#X connect 453 0 440 0;
#X connect 454 0 440 0;
#X connect 455 0 440 0;
#X connect 456 0 440 0;
#X connect 457 0 440 0;
#X connect 458 0 440 0;
#X connect 459 0 440 0;
#X connect 460 0 440 0;
#X connect 461 0 440 0;
#X connect 462 0 440 0;
#X connect 463 0 440 0;
#X connect 464 0 440 0;
#X connect 465 0 440 0;
#X connect 466 0 467 0;
#X connect 467 0 472 0;
#X connect 467 0 503 0;
#X connect 468 0 473 0;
#X connect 470 0 475 0;
#X connect 472 0 518 0;
#X connect 473 0 469 0;
#X connect 475 0 471 0;
#X connect 476 0 470 0;
#X connect 477 0 470 0;
#X connect 478 0 470 0;
#X connect 479 0 470 0;
#X connect 480 0 470 0;
#X connect 481 0 470 0;
#X connect 482 0 470 0;
#X connect 483 0 470 0;
#X connect 484 0 470 0;
#X connect 485 0 470 0;
#X connect 486 0 470 0;
#X connect 487 0 470 0;
#X connect 488 0 470 0;
#X connect 489 0 470 0;
#X connect 490 0 470 0;
#X connect 491 0 470 0;
#X connect 492 0 470 0;
#X connect 493 0 470 0;
#X connect 494 0 470 0;
#X connect 495 0 470 0;
#X connect 496 0 470 0;
#X connect 497 0 470 0;
#X connect 498 0 470 0;
#X connect 499 0 470 0;
#X connect 500 0 440 0;
#X connect 500 1 446 0;
#X connect 500 2 447 0;
#X connect 500 3 448 0;
#X connect 500 4 449 0;
#X connect 500 5 450 0;
#X connect 500 6 451 0;
#X connect 500 7 452 0;
#X connect 500 8 453 0;
#X connect 500 9 454 0;
#X connect 500 10 455 0;
#X connect 500 11 456 0;
#X connect 500 12 457 0;
#X connect 500 13 458 0;
#X connect 500 14 459 0;
#X connect 500 15 460 0;
#X connect 500 16 461 0;
#X connect 500 17 462 0;
#X connect 500 18 463 0;
#X connect 500 19 464 0;
#X connect 500 20 465 0;
#X connect 500 21 502 0;
#X connect 500 22 501 0;
#X connect 501 0 440 0;
#X connect 502 0 440 0;
#X connect 503 0 470 0;
#X connect 503 1 476 0;
#X connect 503 2 477 0;
#X connect 503 3 478 0;
#X connect 503 4 479 0;
#X connect 503 5 480 0;
#X connect 503 6 481 0;
#X connect 503 7 482 0;
#X connect 503 8 483 0;
#X connect 503 9 484 0;
#X connect 503 10 485 0;
#X connect 503 11 486 0;
#X connect 503 12 487 0;
#X connect 503 13 489 0;
#X connect 503 14 490 0;
#X connect 503 15 491 0;
#X connect 503 16 492 0;
#X connect 503 17 493 0;
#X connect 503 18 494 0;
#X connect 503 19 495 0;
#X connect 503 20 496 0;
#X connect 503 21 497 0;
#X connect 503 22 498 0;
#X connect 503 23 499 0;
#X connect 503 24 488 0;
#X connect 504 0 409 0;
#X connect 504 1 415 0;
#X connect 504 2 416 0;
#X connect 504 3 417 0;
#X connect 504 4 418 0;
#X connect 504 5 419 0;
#X connect 504 6 420 0;
#X connect 504 7 421 0;
#X connect 504 8 422 0;
#X connect 504 9 423 0;
#X connect 504 10 424 0;
#X connect 504 11 425 0;
#X connect 504 12 426 0;
#X connect 504 13 428 0;
#X connect 504 14 429 0;
#X connect 504 15 430 0;
#X connect 504 16 431 0;
#X connect 504 17 432 0;
#X connect 504 18 433 0;
#X connect 504 19 434 0;
#X connect 504 20 435 0;
#X connect 504 21 427 0;
#X connect 505 0 349 0;
#X connect 505 1 354 0;
#X connect 505 2 355 0;
#X connect 505 3 356 0;
#X connect 505 4 357 0;
#X connect 505 5 358 0;
#X connect 505 6 359 0;
#X connect 505 7 360 0;
#X connect 505 8 361 0;
#X connect 505 9 362 0;
#X connect 505 10 363 0;
#X connect 505 11 364 0;
#X connect 505 12 365 0;
#X connect 505 13 367 0;
#X connect 505 14 368 0;
#X connect 505 15 369 0;
#X connect 505 16 370 0;
#X connect 505 17 371 0;
#X connect 505 18 372 0;
#X connect 505 19 366 0;
#X connect 506 0 142 0;
#X connect 506 1 327 0;
#X connect 506 2 328 0;
#X connect 506 3 329 0;
#X connect 506 4 330 0;
#X connect 506 5 331 0;
#X connect 506 6 332 0;
#X connect 506 7 333 0;
#X connect 506 8 334 0;
#X connect 506 9 335 0;
#X connect 506 10 336 0;
#X connect 506 11 337 0;
#X connect 506 12 338 0;
#X connect 506 13 340 0;
#X connect 506 14 341 0;
#X connect 506 15 342 0;
#X connect 506 16 343 0;
#X connect 506 17 344 0;
#X connect 506 18 339 0;
#X connect 507 0 133 0;
#X connect 507 1 309 0;
#X connect 507 2 310 0;
#X connect 507 3 311 0;
#X connect 507 4 312 0;
#X connect 507 5 313 0;
#X connect 507 6 314 0;
#X connect 507 7 315 0;
#X connect 507 8 316 0;
#X connect 507 9 317 0;
#X connect 507 10 318 0;
#X connect 507 11 319 0;
#X connect 507 12 320 0;
#X connect 507 13 322 0;
#X connect 507 14 323 0;
#X connect 507 15 324 0;
#X connect 507 16 325 0;
#X connect 507 17 321 0;
#X connect 508 0 124 0;
#X connect 508 1 292 0;
#X connect 508 2 293 0;
#X connect 508 3 294 0;
#X connect 508 4 295 0;
#X connect 508 5 296 0;
#X connect 508 6 297 0;
#X connect 508 7 298 0;
#X connect 508 8 299 0;
#X connect 508 9 300 0;
#X connect 508 10 301 0;
#X connect 508 11 302 0;
#X connect 508 12 303 0;
#X connect 508 13 305 0;
#X connect 508 14 306 0;
#X connect 508 15 307 0;
#X connect 508 16 304 0;
#X connect 509 0 101 0;
#X connect 509 1 276 0;
#X connect 509 2 277 0;
#X connect 509 3 278 0;
#X connect 509 4 279 0;
#X connect 509 5 280 0;
#X connect 509 6 281 0;
#X connect 509 7 282 0;
#X connect 509 8 283 0;
#X connect 509 9 284 0;
#X connect 509 10 285 0;
#X connect 509 11 286 0;
#X connect 509 12 287 0;
#X connect 509 13 289 0;
#X connect 509 14 290 0;
#X connect 509 15 288 0;
#X connect 510 0 1 0;
#X connect 510 1 7 0;
#X connect 510 2 13 0;
#X connect 510 3 18 0;
#X connect 510 4 22 0;
#X connect 510 5 26 0;
#X connect 510 6 30 0;
#X connect 510 7 34 0;
#X connect 510 8 46 0;
#X connect 510 9 50 0;
#X connect 510 10 54 0;
#X connect 510 11 58 0;
#X connect 510 12 120 0;
#X connect 510 13 129 0;
#X connect 510 14 138 0;
#X connect 510 15 345 0;
#X connect 510 16 373 0;
#X connect 510 17 405 0;
#X connect 510 18 436 0;
#X connect 510 19 466 0;
#X connect 512 0 511 0;
#X connect 514 0 515 0;
#X connect 515 0 519 0;
#X connect 516 0 517 0;
#X connect 517 0 518 1;
#X connect 518 0 513 0;
#X connect 518 0 513 1;
#X connect 519 0 516 0;
#X connect 520 0 521 0;
#X connect 521 0 522 0;
#X connect 522 0 524 0;
#X connect 523 0 525 0;
#X connect 524 0 540 0;
#X connect 525 0 526 0;
#X connect 526 0 527 0;
#X connect 527 0 528 0;
#X connect 528 0 529 1;
#X connect 528 0 644 0;
#X connect 529 0 534 0;
#X connect 530 0 531 0;
#X connect 531 0 532 0;
#X connect 532 0 533 0;
#X connect 533 0 529 0;
#X connect 533 0 553 0;
#X connect 533 0 643 0;
#X connect 534 0 546 0;
#X connect 535 0 538 0;
#X connect 537 0 614 0;
#X connect 538 0 536 0;
#X connect 540 0 523 0;
#X connect 542 0 543 0;
#X connect 543 0 545 0;
#X connect 544 0 613 0;
#X connect 544 0 637 0;
#X connect 544 0 638 0;
#X connect 544 0 639 0;
#X connect 544 0 642 0;
#X connect 545 0 544 0;
#X connect 546 0 548 0;
#X connect 547 0 549 0;
#X connect 548 0 547 0;
#X connect 549 0 550 0;
#X connect 549 0 551 0;
#X connect 550 0 554 0;
#X connect 551 0 559 0;
#X connect 552 0 564 0;
#X connect 553 0 552 0;
#X connect 554 0 549 1;
#X connect 555 0 554 1;
#X connect 556 0 554 1;
#X connect 557 0 554 1;
#X connect 558 0 554 1;
#X connect 559 0 560 0;
#X connect 559 1 561 0;
#X connect 559 2 628 0;
#X connect 559 3 563 0;
#X connect 560 0 537 0;
#X connect 560 0 585 0;
#X connect 560 0 593 0;
#X connect 561 0 567 0;
#X connect 561 0 585 0;
#X connect 561 0 597 0;
#X connect 562 0 572 0;
#X connect 562 0 585 0;
#X connect 562 0 601 0;
#X connect 563 0 577 0;
#X connect 563 0 585 0;
#X connect 563 0 605 0;
#X connect 564 0 549 0;
#X connect 565 0 568 0;
#X connect 567 0 615 0;
#X connect 568 0 566 0;
#X connect 570 0 573 0;
#X connect 572 0 636 0;
#X connect 573 0 571 0;
#X connect 575 0 578 0;
#X connect 577 0 641 0;
#X connect 578 0 576 0;
#X connect 580 0 558 0;
#X connect 581 0 555 0;
#X connect 582 0 556 0;
#X connect 583 0 557 0;
#X connect 585 0 594 0;
#X connect 585 0 598 0;
#X connect 585 0 602 0;
#X connect 585 0 606 0;
#X connect 585 0 618 0;
#X connect 586 0 591 0;
#X connect 586 0 612 0;
#X connect 587 0 588 0;
#X connect 588 0 592 0;
#X connect 589 0 590 0;
#X connect 590 0 586 0;
#X connect 591 0 580 0;
#X connect 591 1 581 0;
#X connect 591 2 582 0;
#X connect 591 3 583 0;
#X connect 592 0 589 0;
#X connect 593 0 595 0;
#X connect 594 0 595 0;
#X connect 595 0 608 0;
#X connect 595 0 650 0;
#X connect 597 0 599 0;
#X connect 598 0 599 0;
#X connect 599 0 609 0;
#X connect 599 0 650 0;
#X connect 601 0 603 0;
#X connect 602 0 603 0;
#X connect 603 0 610 0;
#X connect 603 0 650 0;
#X connect 605 0 607 0;
#X connect 606 0 607 0;
#X connect 607 0 611 0;
#X connect 607 0 650 0;
#X connect 608 0 584 0;
#X connect 609 0 596 0;
#X connect 610 0 600 0;
#X connect 611 0 604 0;
#X connect 612 2 624 0;
#X connect 612 3 625 0;
#X connect 613 0 614 1;
#X connect 613 0 640 0;
#X connect 614 0 541 0;
#X connect 614 0 541 1;
#X connect 615 0 541 0;
#X connect 615 0 541 1;
#X connect 617 0 619 0;
#X connect 618 0 619 0;
#X connect 619 0 620 0;
#X connect 619 0 650 0;
#X connect 620 0 616 0;
#X connect 621 0 627 0;
#X connect 622 0 621 0;
#X connect 623 0 621 1;
#X connect 624 0 623 0;
#X connect 625 0 626 0;
#X connect 626 0 621 1;
#X connect 627 0 562 0;
#X connect 627 1 629 0;
#X connect 628 0 622 0;
#X connect 629 0 632 0;
#X connect 629 0 585 0;
#X connect 629 0 617 0;
#X connect 630 0 633 0;
#X connect 632 0 635 0;
#X connect 633 0 631 0;
#X connect 635 0 541 0;
#X connect 635 0 541 1;
#X connect 636 0 541 0;
#X connect 636 0 541 1;
#X connect 637 0 615 1;
#X connect 638 0 636 1;
#X connect 639 0 635 1;
#X connect 641 0 541 0;
#X connect 641 0 541 1;
#X connect 642 0 641 1;
#X connect 643 0 524 0;
#X connect 644 0 585 1;
#X connect 645 0 646 0;
#X connect 646 0 647 0;
#X connect 647 0 651 0;
#X connect 649 0 648 0;
#X connect 650 0 652 0;
#X connect 651 0 650 1;
#X connect 652 0 649 0;
